%TF.GenerationSoftware,KiCad,Pcbnew,8.0.4*%
%TF.CreationDate,2024-08-10T16:36:54+03:00*%
%TF.ProjectId,KiCad_Course,4b694361-645f-4436-9f75-7273652e6b69,rev?*%
%TF.SameCoordinates,Original*%
%TF.FileFunction,Copper,L2,Bot*%
%TF.FilePolarity,Positive*%
%FSLAX46Y46*%
G04 Gerber Fmt 4.6, Leading zero omitted, Abs format (unit mm)*
G04 Created by KiCad (PCBNEW 8.0.4) date 2024-08-10 16:36:54*
%MOMM*%
%LPD*%
G01*
G04 APERTURE LIST*
%TA.AperFunction,ComponentPad*%
%ADD10R,1.700000X1.700000*%
%TD*%
%TA.AperFunction,ComponentPad*%
%ADD11O,1.700000X1.700000*%
%TD*%
%TA.AperFunction,ComponentPad*%
%ADD12O,1.800000X1.150000*%
%TD*%
%TA.AperFunction,ComponentPad*%
%ADD13O,2.000000X1.450000*%
%TD*%
%TA.AperFunction,ViaPad*%
%ADD14C,0.700000*%
%TD*%
%TA.AperFunction,ViaPad*%
%ADD15C,0.800000*%
%TD*%
%TA.AperFunction,Conductor*%
%ADD16C,0.300000*%
%TD*%
%TA.AperFunction,Conductor*%
%ADD17C,0.500000*%
%TD*%
G04 APERTURE END LIST*
D10*
%TO.P,J2,1,Pin_1*%
%TO.N,+3.3V*%
X143800000Y-91750000D03*
D11*
%TO.P,J2,2,Pin_2*%
%TO.N,/SWDIO*%
X141260000Y-91750000D03*
%TO.P,J2,3,Pin_3*%
%TO.N,/SWCLK*%
X138720000Y-91750000D03*
%TO.P,J2,4,Pin_4*%
%TO.N,GND*%
X136180000Y-91750000D03*
%TD*%
D10*
%TO.P,J4,1,Pin_1*%
%TO.N,+3.3V*%
X123970000Y-117600000D03*
D11*
%TO.P,J4,2,Pin_2*%
%TO.N,/I2C2_SCL*%
X126510000Y-117600000D03*
%TO.P,J4,3,Pin_3*%
%TO.N,/I2C2_SDA*%
X129050000Y-117600000D03*
%TO.P,J4,4,Pin_4*%
%TO.N,GND*%
X131590000Y-117600000D03*
%TD*%
D12*
%TO.P,J1,6,Shield*%
%TO.N,unconnected-(J1-Shield-Pad6)*%
X151450000Y-107225000D03*
D13*
%TO.N,unconnected-(J1-Shield-Pad6)_2*%
X147650000Y-107075000D03*
%TO.N,unconnected-(J1-Shield-Pad6)_1*%
X147650000Y-99625000D03*
D12*
%TO.N,unconnected-(J1-Shield-Pad6)_3*%
X151450000Y-99475000D03*
%TD*%
D10*
%TO.P,J3,1,Pin_1*%
%TO.N,+3.3V*%
X129330000Y-91750000D03*
D11*
%TO.P,J3,2,Pin_2*%
%TO.N,/USART1_TX*%
X126790000Y-91750000D03*
%TO.P,J3,3,Pin_3*%
%TO.N,/USART1_RX*%
X124250000Y-91750000D03*
%TO.P,J3,4,Pin_4*%
%TO.N,GND*%
X121710000Y-91750000D03*
%TD*%
D14*
%TO.N,+3.3V*%
X149700000Y-110450000D03*
X128703669Y-112798130D03*
X125050000Y-115450000D03*
X149700000Y-108900000D03*
X126800000Y-115400000D03*
X130669975Y-112769975D03*
%TO.N,GND*%
X146350000Y-102050000D03*
X136650000Y-102750000D03*
X132100000Y-107600000D03*
D15*
X141850000Y-111600000D03*
X145400000Y-112250000D03*
X141200000Y-107100000D03*
X140800000Y-111650000D03*
D14*
X127600000Y-101900000D03*
X150650000Y-109700000D03*
X127600000Y-105700000D03*
X123900000Y-100150000D03*
X122200000Y-111250000D03*
X117300000Y-96450000D03*
X122200000Y-108040000D03*
X122400000Y-101150000D03*
D15*
X141200000Y-108000000D03*
D14*
X128605025Y-110405025D03*
X120700000Y-100800000D03*
X123285037Y-103799202D03*
X119600000Y-106300000D03*
%TD*%
D16*
%TO.N,+3.3V*%
X128731824Y-112769975D02*
X128703669Y-112798130D01*
D17*
X125100000Y-115400000D02*
X125050000Y-115450000D01*
X126800000Y-115400000D02*
X125100000Y-115400000D01*
D16*
X130669975Y-112769975D02*
X128731824Y-112769975D01*
D17*
X149700000Y-110450000D02*
X149700000Y-108900000D01*
%TD*%
%TA.AperFunction,Conductor*%
%TO.N,GND*%
G36*
X150850855Y-89250011D02*
G01*
X151012269Y-89252274D01*
X151024390Y-89253041D01*
X151328553Y-89287312D01*
X151345992Y-89289277D01*
X151359700Y-89291606D01*
X151674366Y-89363426D01*
X151687725Y-89367273D01*
X151992392Y-89473881D01*
X152005228Y-89479199D01*
X152296025Y-89619239D01*
X152308195Y-89625965D01*
X152581486Y-89797685D01*
X152592827Y-89805732D01*
X152845173Y-90006971D01*
X152855541Y-90016237D01*
X153083762Y-90244458D01*
X153093028Y-90254826D01*
X153294267Y-90507172D01*
X153302314Y-90518513D01*
X153474034Y-90791804D01*
X153480760Y-90803974D01*
X153620798Y-91094766D01*
X153626120Y-91107613D01*
X153732725Y-91412272D01*
X153736574Y-91425635D01*
X153800911Y-91707516D01*
X153804020Y-91734907D01*
X153845597Y-117429308D01*
X153844817Y-117443393D01*
X153810722Y-117745992D01*
X153808393Y-117759700D01*
X153736573Y-118074366D01*
X153732724Y-118087729D01*
X153626120Y-118392386D01*
X153620798Y-118405233D01*
X153480760Y-118696025D01*
X153474034Y-118708195D01*
X153302314Y-118981486D01*
X153294267Y-118992827D01*
X153093028Y-119245173D01*
X153083762Y-119255541D01*
X152855541Y-119483762D01*
X152845173Y-119493028D01*
X152592827Y-119694267D01*
X152581486Y-119702314D01*
X152308195Y-119874034D01*
X152296025Y-119880760D01*
X152005233Y-120020798D01*
X151992386Y-120026120D01*
X151687726Y-120132725D01*
X151674362Y-120136574D01*
X151604880Y-120152432D01*
X151577591Y-120155541D01*
X115649267Y-120243171D01*
X115635082Y-120242391D01*
X115354008Y-120210723D01*
X115340298Y-120208394D01*
X115025632Y-120136573D01*
X115012270Y-120132724D01*
X114707613Y-120026120D01*
X114694766Y-120020798D01*
X114403974Y-119880760D01*
X114391804Y-119874034D01*
X114118513Y-119702314D01*
X114107172Y-119694267D01*
X113854826Y-119493028D01*
X113844458Y-119483762D01*
X113616237Y-119255541D01*
X113606971Y-119245173D01*
X113405732Y-118992827D01*
X113397685Y-118981486D01*
X113329788Y-118873429D01*
X113225964Y-118708193D01*
X113219239Y-118696025D01*
X113189513Y-118634298D01*
X113079199Y-118405228D01*
X113073879Y-118392386D01*
X113068987Y-118378406D01*
X112967273Y-118087725D01*
X112963426Y-118074366D01*
X112891606Y-117759700D01*
X112889277Y-117745992D01*
X112883650Y-117696048D01*
X112853041Y-117424390D01*
X112852274Y-117412269D01*
X112850012Y-117250855D01*
X112850000Y-117249117D01*
X112850000Y-117143713D01*
X114499500Y-117143713D01*
X114499500Y-117356286D01*
X114527674Y-117534174D01*
X114532754Y-117566243D01*
X114595612Y-117759700D01*
X114598444Y-117768414D01*
X114694951Y-117957820D01*
X114819890Y-118129786D01*
X114970213Y-118280109D01*
X115142179Y-118405048D01*
X115142181Y-118405049D01*
X115142184Y-118405051D01*
X115331588Y-118501557D01*
X115533757Y-118567246D01*
X115743713Y-118600500D01*
X115743714Y-118600500D01*
X115956286Y-118600500D01*
X115956287Y-118600500D01*
X116166243Y-118567246D01*
X116368412Y-118501557D01*
X116557816Y-118405051D01*
X116594490Y-118378406D01*
X116729786Y-118280109D01*
X116729788Y-118280106D01*
X116729792Y-118280104D01*
X116880104Y-118129792D01*
X116880106Y-118129788D01*
X116880109Y-118129786D01*
X117005048Y-117957820D01*
X117005047Y-117957820D01*
X117005051Y-117957816D01*
X117101557Y-117768412D01*
X117167246Y-117566243D01*
X117200500Y-117356287D01*
X117200500Y-117143713D01*
X117167246Y-116933757D01*
X117101557Y-116731588D01*
X117088077Y-116705131D01*
X122819500Y-116705131D01*
X122819500Y-118494856D01*
X122819502Y-118494882D01*
X122822413Y-118519987D01*
X122822415Y-118519991D01*
X122867793Y-118622764D01*
X122867794Y-118622765D01*
X122947235Y-118702206D01*
X123050009Y-118747585D01*
X123075135Y-118750500D01*
X124864864Y-118750499D01*
X124864879Y-118750497D01*
X124864882Y-118750497D01*
X124889987Y-118747586D01*
X124889988Y-118747585D01*
X124889991Y-118747585D01*
X124992765Y-118702206D01*
X125072206Y-118622765D01*
X125117585Y-118519991D01*
X125120500Y-118494865D01*
X125120499Y-117756046D01*
X125140183Y-117689009D01*
X125192987Y-117643254D01*
X125262146Y-117633310D01*
X125325702Y-117662335D01*
X125363476Y-117721113D01*
X125367970Y-117744606D01*
X125372454Y-117792993D01*
X125374244Y-117812310D01*
X125427675Y-118000099D01*
X125432596Y-118017392D01*
X125432596Y-118017394D01*
X125527632Y-118208253D01*
X125581892Y-118280104D01*
X125656128Y-118378407D01*
X125813698Y-118522052D01*
X125994981Y-118634298D01*
X126193802Y-118711321D01*
X126403390Y-118750500D01*
X126403392Y-118750500D01*
X126616608Y-118750500D01*
X126616610Y-118750500D01*
X126826198Y-118711321D01*
X127025019Y-118634298D01*
X127206302Y-118522052D01*
X127363872Y-118378407D01*
X127492366Y-118208255D01*
X127546270Y-118100000D01*
X127587403Y-118017394D01*
X127587403Y-118017393D01*
X127587405Y-118017389D01*
X127645756Y-117812310D01*
X127656529Y-117696047D01*
X127682315Y-117631111D01*
X127724622Y-117600804D01*
X127833130Y-117600804D01*
X127869503Y-117621668D01*
X127901693Y-117683681D01*
X127903470Y-117696047D01*
X127914244Y-117812310D01*
X127967675Y-118000099D01*
X127972596Y-118017392D01*
X127972596Y-118017394D01*
X128067632Y-118208253D01*
X128121892Y-118280104D01*
X128196128Y-118378407D01*
X128353698Y-118522052D01*
X128534981Y-118634298D01*
X128733802Y-118711321D01*
X128943390Y-118750500D01*
X128943392Y-118750500D01*
X129156608Y-118750500D01*
X129156610Y-118750500D01*
X129366198Y-118711321D01*
X129565019Y-118634298D01*
X129746302Y-118522052D01*
X129903872Y-118378407D01*
X130032366Y-118208255D01*
X130099325Y-118073781D01*
X130146825Y-118022548D01*
X130214488Y-118005126D01*
X130280828Y-118027051D01*
X130322705Y-118076651D01*
X130416399Y-118277578D01*
X130551894Y-118471082D01*
X130718917Y-118638105D01*
X130912421Y-118773600D01*
X131126507Y-118873429D01*
X131126516Y-118873433D01*
X131340000Y-118930634D01*
X131340000Y-118033012D01*
X131397007Y-118065925D01*
X131524174Y-118100000D01*
X131655826Y-118100000D01*
X131782993Y-118065925D01*
X131840000Y-118033012D01*
X131840000Y-118930633D01*
X132053483Y-118873433D01*
X132053492Y-118873429D01*
X132267578Y-118773600D01*
X132461082Y-118638105D01*
X132628105Y-118471082D01*
X132763600Y-118277578D01*
X132863429Y-118063492D01*
X132863432Y-118063486D01*
X132920636Y-117850000D01*
X132023012Y-117850000D01*
X132055925Y-117792993D01*
X132090000Y-117665826D01*
X132090000Y-117534174D01*
X132055925Y-117407007D01*
X132023012Y-117350000D01*
X132920636Y-117350000D01*
X132920635Y-117349999D01*
X132865361Y-117143713D01*
X149499500Y-117143713D01*
X149499500Y-117356286D01*
X149527674Y-117534174D01*
X149532754Y-117566243D01*
X149595612Y-117759700D01*
X149598444Y-117768414D01*
X149694951Y-117957820D01*
X149819890Y-118129786D01*
X149970213Y-118280109D01*
X150142179Y-118405048D01*
X150142181Y-118405049D01*
X150142184Y-118405051D01*
X150331588Y-118501557D01*
X150533757Y-118567246D01*
X150743713Y-118600500D01*
X150743714Y-118600500D01*
X150956286Y-118600500D01*
X150956287Y-118600500D01*
X151166243Y-118567246D01*
X151368412Y-118501557D01*
X151557816Y-118405051D01*
X151594490Y-118378406D01*
X151729786Y-118280109D01*
X151729788Y-118280106D01*
X151729792Y-118280104D01*
X151880104Y-118129792D01*
X151880106Y-118129788D01*
X151880109Y-118129786D01*
X152005048Y-117957820D01*
X152005047Y-117957820D01*
X152005051Y-117957816D01*
X152101557Y-117768412D01*
X152167246Y-117566243D01*
X152200500Y-117356287D01*
X152200500Y-117143713D01*
X152167246Y-116933757D01*
X152101557Y-116731588D01*
X152005051Y-116542184D01*
X152005049Y-116542181D01*
X152005048Y-116542179D01*
X151880109Y-116370213D01*
X151729786Y-116219890D01*
X151557820Y-116094951D01*
X151368414Y-115998444D01*
X151368413Y-115998443D01*
X151368412Y-115998443D01*
X151166243Y-115932754D01*
X151166241Y-115932753D01*
X151166240Y-115932753D01*
X151004957Y-115907208D01*
X150956287Y-115899500D01*
X150743713Y-115899500D01*
X150695042Y-115907208D01*
X150533760Y-115932753D01*
X150533757Y-115932754D01*
X150359780Y-115989283D01*
X150331585Y-115998444D01*
X150142179Y-116094951D01*
X149970213Y-116219890D01*
X149819890Y-116370213D01*
X149694951Y-116542179D01*
X149598444Y-116731585D01*
X149532753Y-116933760D01*
X149499500Y-117143713D01*
X132865361Y-117143713D01*
X132863432Y-117136513D01*
X132863429Y-117136507D01*
X132763600Y-116922422D01*
X132763599Y-116922420D01*
X132628113Y-116728926D01*
X132628108Y-116728920D01*
X132461082Y-116561894D01*
X132267578Y-116426399D01*
X132053492Y-116326570D01*
X132053486Y-116326567D01*
X131840000Y-116269364D01*
X131840000Y-117166988D01*
X131782993Y-117134075D01*
X131655826Y-117100000D01*
X131524174Y-117100000D01*
X131397007Y-117134075D01*
X131340000Y-117166988D01*
X131340000Y-116269364D01*
X131339999Y-116269364D01*
X131126513Y-116326567D01*
X131126507Y-116326570D01*
X130912422Y-116426399D01*
X130912420Y-116426400D01*
X130718926Y-116561886D01*
X130718920Y-116561891D01*
X130551891Y-116728920D01*
X130551886Y-116728926D01*
X130416400Y-116922420D01*
X130416399Y-116922422D01*
X130322705Y-117123348D01*
X130276532Y-117175787D01*
X130209339Y-117194939D01*
X130142457Y-117174723D01*
X130099324Y-117126216D01*
X130032366Y-116991745D01*
X129988577Y-116933760D01*
X129903872Y-116821593D01*
X129746302Y-116677948D01*
X129565019Y-116565702D01*
X129565017Y-116565701D01*
X129465608Y-116527190D01*
X129366198Y-116488679D01*
X129156610Y-116449500D01*
X128943390Y-116449500D01*
X128733802Y-116488679D01*
X128733799Y-116488679D01*
X128733799Y-116488680D01*
X128534982Y-116565701D01*
X128534980Y-116565702D01*
X128353699Y-116677947D01*
X128196127Y-116821593D01*
X128067632Y-116991746D01*
X127972596Y-117182605D01*
X127972596Y-117182607D01*
X127914244Y-117387689D01*
X127903471Y-117503951D01*
X127877685Y-117568888D01*
X127833130Y-117600804D01*
X127724622Y-117600804D01*
X127726869Y-117599194D01*
X127690497Y-117578331D01*
X127658307Y-117516318D01*
X127656529Y-117503951D01*
X127653175Y-117467759D01*
X127645756Y-117387690D01*
X127587405Y-117182611D01*
X127587403Y-117182606D01*
X127587403Y-117182605D01*
X127492367Y-116991746D01*
X127363872Y-116821593D01*
X127206302Y-116677948D01*
X127025019Y-116565702D01*
X127025017Y-116565701D01*
X126925608Y-116527190D01*
X126826198Y-116488679D01*
X126616610Y-116449500D01*
X126403390Y-116449500D01*
X126193802Y-116488679D01*
X126193799Y-116488679D01*
X126193799Y-116488680D01*
X125994982Y-116565701D01*
X125994980Y-116565702D01*
X125813699Y-116677947D01*
X125656127Y-116821593D01*
X125527632Y-116991746D01*
X125432596Y-117182605D01*
X125432596Y-117182607D01*
X125374244Y-117387689D01*
X125367970Y-117455394D01*
X125342183Y-117520331D01*
X125285383Y-117561018D01*
X125215602Y-117564538D01*
X125154995Y-117529772D01*
X125122806Y-117467759D01*
X125120499Y-117443952D01*
X125120499Y-116705143D01*
X125120499Y-116705136D01*
X125120497Y-116705117D01*
X125117586Y-116680012D01*
X125117585Y-116680010D01*
X125117585Y-116680009D01*
X125072206Y-116577235D01*
X124992765Y-116497794D01*
X124972124Y-116488680D01*
X124889992Y-116452415D01*
X124864865Y-116449500D01*
X123075143Y-116449500D01*
X123075117Y-116449502D01*
X123050012Y-116452413D01*
X123050008Y-116452415D01*
X122947235Y-116497793D01*
X122867794Y-116577234D01*
X122822415Y-116680006D01*
X122822415Y-116680008D01*
X122819500Y-116705131D01*
X117088077Y-116705131D01*
X117005051Y-116542184D01*
X117005049Y-116542181D01*
X117005048Y-116542179D01*
X116880109Y-116370213D01*
X116729786Y-116219890D01*
X116557820Y-116094951D01*
X116368414Y-115998444D01*
X116368413Y-115998443D01*
X116368412Y-115998443D01*
X116166243Y-115932754D01*
X116166241Y-115932753D01*
X116166240Y-115932753D01*
X116004957Y-115907208D01*
X115956287Y-115899500D01*
X115743713Y-115899500D01*
X115695042Y-115907208D01*
X115533760Y-115932753D01*
X115533757Y-115932754D01*
X115359780Y-115989283D01*
X115331585Y-115998444D01*
X115142179Y-116094951D01*
X114970213Y-116219890D01*
X114819890Y-116370213D01*
X114694951Y-116542179D01*
X114598444Y-116731585D01*
X114532753Y-116933760D01*
X114499500Y-117143713D01*
X112850000Y-117143713D01*
X112850000Y-115449999D01*
X124394722Y-115449999D01*
X124394722Y-115450000D01*
X124413762Y-115606818D01*
X124450818Y-115704524D01*
X124469780Y-115754523D01*
X124559517Y-115884530D01*
X124677760Y-115989283D01*
X124677762Y-115989284D01*
X124817634Y-116062696D01*
X124971014Y-116100500D01*
X124971015Y-116100500D01*
X125128985Y-116100500D01*
X125282365Y-116062696D01*
X125422233Y-115989287D01*
X125422234Y-115989285D01*
X125422240Y-115989283D01*
X125430818Y-115981683D01*
X125494050Y-115951963D01*
X125513044Y-115950500D01*
X126418569Y-115950500D01*
X126476194Y-115964703D01*
X126567635Y-116012696D01*
X126644325Y-116031598D01*
X126721014Y-116050500D01*
X126721015Y-116050500D01*
X126878985Y-116050500D01*
X127032365Y-116012696D01*
X127172240Y-115939283D01*
X127290483Y-115834530D01*
X127380220Y-115704523D01*
X127436237Y-115556818D01*
X127455278Y-115400000D01*
X127436237Y-115243182D01*
X127380220Y-115095477D01*
X127290483Y-114965470D01*
X127172240Y-114860717D01*
X127172238Y-114860716D01*
X127172237Y-114860715D01*
X127032365Y-114787303D01*
X126878986Y-114749500D01*
X126878985Y-114749500D01*
X126721015Y-114749500D01*
X126721014Y-114749500D01*
X126567636Y-114787303D01*
X126521763Y-114811379D01*
X126476194Y-114835296D01*
X126418569Y-114849500D01*
X125336166Y-114849500D01*
X125290069Y-114838137D01*
X125289377Y-114839963D01*
X125282365Y-114837303D01*
X125128986Y-114799500D01*
X125128985Y-114799500D01*
X124971015Y-114799500D01*
X124971014Y-114799500D01*
X124817634Y-114837303D01*
X124677762Y-114910715D01*
X124559516Y-115015471D01*
X124469781Y-115145475D01*
X124469780Y-115145476D01*
X124413762Y-115293181D01*
X124394722Y-115449999D01*
X112850000Y-115449999D01*
X112850000Y-112798129D01*
X128048391Y-112798129D01*
X128048391Y-112798130D01*
X128067431Y-112954948D01*
X128123449Y-113102653D01*
X128213186Y-113232660D01*
X128331429Y-113337413D01*
X128331431Y-113337414D01*
X128471303Y-113410826D01*
X128624683Y-113448630D01*
X128624684Y-113448630D01*
X128782654Y-113448630D01*
X128936034Y-113410826D01*
X128989678Y-113382671D01*
X129075909Y-113337413D01*
X129172706Y-113251658D01*
X129235940Y-113221938D01*
X129254933Y-113220475D01*
X130150492Y-113220475D01*
X130217531Y-113240160D01*
X130232716Y-113251657D01*
X130297735Y-113309258D01*
X130297737Y-113309259D01*
X130437609Y-113382671D01*
X130590989Y-113420475D01*
X130590990Y-113420475D01*
X130748960Y-113420475D01*
X130902340Y-113382671D01*
X131042215Y-113309258D01*
X131160458Y-113204505D01*
X131250195Y-113074498D01*
X131306212Y-112926793D01*
X131325253Y-112769975D01*
X131309631Y-112641311D01*
X131306212Y-112613156D01*
X131284967Y-112557139D01*
X131250195Y-112465452D01*
X131160458Y-112335445D01*
X131042215Y-112230692D01*
X131042213Y-112230691D01*
X131042212Y-112230690D01*
X130902340Y-112157278D01*
X130748961Y-112119475D01*
X130748960Y-112119475D01*
X130590990Y-112119475D01*
X130590989Y-112119475D01*
X130437609Y-112157278D01*
X130297737Y-112230690D01*
X130232719Y-112288291D01*
X130169485Y-112318012D01*
X130150492Y-112319475D01*
X129191371Y-112319475D01*
X129124332Y-112299790D01*
X129109144Y-112288290D01*
X129075912Y-112258849D01*
X129075904Y-112258844D01*
X128936034Y-112185433D01*
X128782655Y-112147630D01*
X128782654Y-112147630D01*
X128624684Y-112147630D01*
X128624683Y-112147630D01*
X128471303Y-112185433D01*
X128331431Y-112258845D01*
X128213185Y-112363601D01*
X128123450Y-112493605D01*
X128123449Y-112493606D01*
X128067431Y-112641311D01*
X128048391Y-112798129D01*
X112850000Y-112798129D01*
X112850000Y-108899999D01*
X149044722Y-108899999D01*
X149044722Y-108900000D01*
X149063762Y-109056818D01*
X149119780Y-109204523D01*
X149127548Y-109215777D01*
X149149433Y-109282130D01*
X149149500Y-109286219D01*
X149149500Y-110063780D01*
X149129815Y-110130819D01*
X149127552Y-110134217D01*
X149119780Y-110145476D01*
X149063762Y-110293181D01*
X149044722Y-110449999D01*
X149044722Y-110450000D01*
X149063762Y-110606818D01*
X149119780Y-110754523D01*
X149209517Y-110884530D01*
X149327760Y-110989283D01*
X149327762Y-110989284D01*
X149467634Y-111062696D01*
X149621014Y-111100500D01*
X149621015Y-111100500D01*
X149778985Y-111100500D01*
X149932365Y-111062696D01*
X150072240Y-110989283D01*
X150190483Y-110884530D01*
X150280220Y-110754523D01*
X150336237Y-110606818D01*
X150355278Y-110450000D01*
X150336237Y-110293182D01*
X150280220Y-110145477D01*
X150272448Y-110134217D01*
X150250567Y-110067862D01*
X150250500Y-110063780D01*
X150250500Y-109286219D01*
X150270185Y-109219180D01*
X150272434Y-109215802D01*
X150280220Y-109204523D01*
X150336237Y-109056818D01*
X150355278Y-108900000D01*
X150336237Y-108743182D01*
X150280220Y-108595477D01*
X150190483Y-108465470D01*
X150072240Y-108360717D01*
X150072238Y-108360716D01*
X150072237Y-108360715D01*
X149932365Y-108287303D01*
X149778986Y-108249500D01*
X149778985Y-108249500D01*
X149621015Y-108249500D01*
X149621014Y-108249500D01*
X149467634Y-108287303D01*
X149327762Y-108360715D01*
X149209516Y-108465471D01*
X149119781Y-108595475D01*
X149119780Y-108595476D01*
X149063762Y-108743181D01*
X149044722Y-108899999D01*
X112850000Y-108899999D01*
X112850000Y-106973992D01*
X146349500Y-106973992D01*
X146349500Y-107176007D01*
X146388907Y-107374119D01*
X146388909Y-107374127D01*
X146466212Y-107560752D01*
X146466217Y-107560762D01*
X146578441Y-107728718D01*
X146721281Y-107871558D01*
X146889237Y-107983782D01*
X146889241Y-107983784D01*
X146889244Y-107983786D01*
X147075873Y-108061091D01*
X147273992Y-108100499D01*
X147273996Y-108100500D01*
X147273997Y-108100500D01*
X148026004Y-108100500D01*
X148026005Y-108100499D01*
X148224127Y-108061091D01*
X148410756Y-107983786D01*
X148578718Y-107871558D01*
X148721558Y-107728718D01*
X148833786Y-107560756D01*
X148911091Y-107374127D01*
X148950500Y-107176003D01*
X148950500Y-107138766D01*
X150249500Y-107138766D01*
X150249500Y-107311233D01*
X150283143Y-107480366D01*
X150283146Y-107480378D01*
X150349138Y-107639698D01*
X150349145Y-107639711D01*
X150444954Y-107783098D01*
X150444957Y-107783102D01*
X150566897Y-107905042D01*
X150566901Y-107905045D01*
X150710288Y-108000854D01*
X150710301Y-108000861D01*
X150855708Y-108061090D01*
X150869626Y-108066855D01*
X151038766Y-108100499D01*
X151038769Y-108100500D01*
X151038771Y-108100500D01*
X151861231Y-108100500D01*
X151861232Y-108100499D01*
X152030374Y-108066855D01*
X152189705Y-108000858D01*
X152333099Y-107905045D01*
X152455045Y-107783099D01*
X152550858Y-107639705D01*
X152616855Y-107480374D01*
X152650500Y-107311229D01*
X152650500Y-107138771D01*
X152650500Y-107138768D01*
X152650499Y-107138766D01*
X152616856Y-106969633D01*
X152616855Y-106969626D01*
X152616853Y-106969621D01*
X152550861Y-106810301D01*
X152550854Y-106810288D01*
X152455045Y-106666901D01*
X152455042Y-106666897D01*
X152333102Y-106544957D01*
X152333098Y-106544954D01*
X152189711Y-106449145D01*
X152189698Y-106449138D01*
X152030378Y-106383146D01*
X152030366Y-106383143D01*
X151861232Y-106349500D01*
X151861229Y-106349500D01*
X151038771Y-106349500D01*
X151038768Y-106349500D01*
X150869633Y-106383143D01*
X150869621Y-106383146D01*
X150710301Y-106449138D01*
X150710288Y-106449145D01*
X150566901Y-106544954D01*
X150566897Y-106544957D01*
X150444957Y-106666897D01*
X150444954Y-106666901D01*
X150349145Y-106810288D01*
X150349138Y-106810301D01*
X150283146Y-106969621D01*
X150283143Y-106969633D01*
X150249500Y-107138766D01*
X148950500Y-107138766D01*
X148950500Y-106973997D01*
X148911091Y-106775873D01*
X148869932Y-106676507D01*
X148862463Y-106607037D01*
X148893738Y-106544558D01*
X148944060Y-106514700D01*
X148943207Y-106512452D01*
X148950222Y-106509790D01*
X148950225Y-106509790D01*
X149100852Y-106430734D01*
X149228183Y-106317929D01*
X149324818Y-106177930D01*
X149385140Y-106018872D01*
X149405645Y-105850000D01*
X149385140Y-105681128D01*
X149324818Y-105522070D01*
X149228183Y-105382071D01*
X149100852Y-105269266D01*
X149100849Y-105269263D01*
X148950226Y-105190210D01*
X148785056Y-105149500D01*
X148614944Y-105149500D01*
X148449773Y-105190210D01*
X148299150Y-105269263D01*
X148171816Y-105382072D01*
X148075182Y-105522068D01*
X148014860Y-105681125D01*
X148014859Y-105681130D01*
X147994355Y-105849999D01*
X148001708Y-105910553D01*
X147990248Y-105979476D01*
X147943344Y-106031263D01*
X147878612Y-106049500D01*
X147273992Y-106049500D01*
X147075880Y-106088907D01*
X147075872Y-106088909D01*
X146889247Y-106166212D01*
X146889237Y-106166217D01*
X146721281Y-106278441D01*
X146578441Y-106421281D01*
X146466217Y-106589237D01*
X146466212Y-106589247D01*
X146388909Y-106775872D01*
X146388907Y-106775880D01*
X146349500Y-106973992D01*
X112850000Y-106973992D01*
X112850000Y-101218995D01*
X114389499Y-101218995D01*
X114416418Y-101354322D01*
X114416421Y-101354332D01*
X114469221Y-101481804D01*
X114469228Y-101481817D01*
X114545885Y-101596541D01*
X114545888Y-101596545D01*
X114643454Y-101694111D01*
X114643458Y-101694114D01*
X114758182Y-101770771D01*
X114758195Y-101770778D01*
X114885667Y-101823578D01*
X114885672Y-101823580D01*
X114885676Y-101823580D01*
X114885677Y-101823581D01*
X115021004Y-101850500D01*
X115021007Y-101850500D01*
X115158995Y-101850500D01*
X115250041Y-101832389D01*
X115294328Y-101823580D01*
X115421811Y-101770775D01*
X115536542Y-101694114D01*
X115634114Y-101596542D01*
X115710775Y-101481811D01*
X115763580Y-101354328D01*
X115790500Y-101218993D01*
X115790500Y-101081007D01*
X115790500Y-101081004D01*
X115763581Y-100945677D01*
X115763580Y-100945676D01*
X115763580Y-100945672D01*
X115723952Y-100850000D01*
X115710778Y-100818195D01*
X115710771Y-100818182D01*
X115634114Y-100703458D01*
X115634111Y-100703454D01*
X115536545Y-100605888D01*
X115536541Y-100605885D01*
X115421817Y-100529228D01*
X115421804Y-100529221D01*
X115294332Y-100476421D01*
X115294322Y-100476418D01*
X115158995Y-100449500D01*
X115158993Y-100449500D01*
X115021007Y-100449500D01*
X115021005Y-100449500D01*
X114885677Y-100476418D01*
X114885667Y-100476421D01*
X114758195Y-100529221D01*
X114758182Y-100529228D01*
X114643458Y-100605885D01*
X114643454Y-100605888D01*
X114545888Y-100703454D01*
X114545885Y-100703458D01*
X114469228Y-100818182D01*
X114469221Y-100818195D01*
X114416421Y-100945667D01*
X114416418Y-100945677D01*
X114389500Y-101081004D01*
X114389500Y-101081007D01*
X114389500Y-101218993D01*
X114389500Y-101218995D01*
X114389499Y-101218995D01*
X112850000Y-101218995D01*
X112850000Y-99523992D01*
X146349500Y-99523992D01*
X146349500Y-99726007D01*
X146388907Y-99924119D01*
X146388909Y-99924127D01*
X146466212Y-100110752D01*
X146466217Y-100110762D01*
X146578441Y-100278718D01*
X146721281Y-100421558D01*
X146889237Y-100533782D01*
X146889241Y-100533784D01*
X146889244Y-100533786D01*
X147075873Y-100611091D01*
X147273484Y-100650398D01*
X147273992Y-100650499D01*
X147273996Y-100650500D01*
X147878612Y-100650500D01*
X147945651Y-100670185D01*
X147991406Y-100722989D01*
X148001707Y-100789445D01*
X147998218Y-100818189D01*
X147994355Y-100850000D01*
X148014859Y-101018869D01*
X148014860Y-101018874D01*
X148075182Y-101177931D01*
X148103526Y-101218993D01*
X148171817Y-101317929D01*
X148212908Y-101354332D01*
X148299150Y-101430736D01*
X148396477Y-101481817D01*
X148449775Y-101509790D01*
X148614944Y-101550500D01*
X148785056Y-101550500D01*
X148950225Y-101509790D01*
X149029692Y-101468081D01*
X149100849Y-101430736D01*
X149100850Y-101430734D01*
X149100852Y-101430734D01*
X149228183Y-101317929D01*
X149324818Y-101177930D01*
X149385140Y-101018872D01*
X149405645Y-100850000D01*
X149385140Y-100681128D01*
X149373524Y-100650500D01*
X149356604Y-100605885D01*
X149324818Y-100522070D01*
X149293306Y-100476418D01*
X149255439Y-100421558D01*
X149228183Y-100382071D01*
X149100852Y-100269266D01*
X149100849Y-100269263D01*
X148950225Y-100190209D01*
X148943210Y-100187549D01*
X148944131Y-100185119D01*
X148894438Y-100156186D01*
X148862649Y-100093967D01*
X148869544Y-100024439D01*
X148869932Y-100023492D01*
X148911091Y-99924127D01*
X148950500Y-99726003D01*
X148950500Y-99523997D01*
X148923601Y-99388766D01*
X150249500Y-99388766D01*
X150249500Y-99561233D01*
X150283143Y-99730366D01*
X150283146Y-99730378D01*
X150349138Y-99889698D01*
X150349145Y-99889711D01*
X150444954Y-100033098D01*
X150444957Y-100033102D01*
X150566897Y-100155042D01*
X150566901Y-100155045D01*
X150710288Y-100250854D01*
X150710301Y-100250861D01*
X150869621Y-100316853D01*
X150869626Y-100316855D01*
X151038766Y-100350499D01*
X151038769Y-100350500D01*
X151038771Y-100350500D01*
X151861231Y-100350500D01*
X151861232Y-100350499D01*
X152030374Y-100316855D01*
X152189705Y-100250858D01*
X152333099Y-100155045D01*
X152455045Y-100033099D01*
X152550858Y-99889705D01*
X152616855Y-99730374D01*
X152650500Y-99561229D01*
X152650500Y-99388771D01*
X152650500Y-99388768D01*
X152650499Y-99388766D01*
X152637989Y-99325873D01*
X152616855Y-99219626D01*
X152583557Y-99139237D01*
X152550861Y-99060301D01*
X152550854Y-99060288D01*
X152455045Y-98916901D01*
X152455042Y-98916897D01*
X152333102Y-98794957D01*
X152333098Y-98794954D01*
X152189711Y-98699145D01*
X152189698Y-98699138D01*
X152030378Y-98633146D01*
X152030366Y-98633143D01*
X151861232Y-98599500D01*
X151861229Y-98599500D01*
X151038771Y-98599500D01*
X151038768Y-98599500D01*
X150869633Y-98633143D01*
X150869621Y-98633146D01*
X150710301Y-98699138D01*
X150710288Y-98699145D01*
X150566901Y-98794954D01*
X150566897Y-98794957D01*
X150444957Y-98916897D01*
X150444954Y-98916901D01*
X150349145Y-99060288D01*
X150349138Y-99060301D01*
X150283146Y-99219621D01*
X150283143Y-99219633D01*
X150249500Y-99388766D01*
X148923601Y-99388766D01*
X148911091Y-99325873D01*
X148833786Y-99139244D01*
X148833784Y-99139241D01*
X148833782Y-99139237D01*
X148721558Y-98971281D01*
X148578718Y-98828441D01*
X148410762Y-98716217D01*
X148410752Y-98716212D01*
X148224127Y-98638909D01*
X148224119Y-98638907D01*
X148026007Y-98599500D01*
X148026003Y-98599500D01*
X147273997Y-98599500D01*
X147273992Y-98599500D01*
X147075880Y-98638907D01*
X147075872Y-98638909D01*
X146889247Y-98716212D01*
X146889237Y-98716217D01*
X146721281Y-98828441D01*
X146578441Y-98971281D01*
X146466217Y-99139237D01*
X146466212Y-99139247D01*
X146388909Y-99325872D01*
X146388907Y-99325880D01*
X146349500Y-99523992D01*
X112850000Y-99523992D01*
X112850000Y-98218995D01*
X114389499Y-98218995D01*
X114416418Y-98354322D01*
X114416421Y-98354332D01*
X114469221Y-98481804D01*
X114469228Y-98481817D01*
X114545885Y-98596541D01*
X114545888Y-98596545D01*
X114643454Y-98694111D01*
X114643458Y-98694114D01*
X114758182Y-98770771D01*
X114758195Y-98770778D01*
X114885667Y-98823578D01*
X114885672Y-98823580D01*
X114885676Y-98823580D01*
X114885677Y-98823581D01*
X115021004Y-98850500D01*
X115021007Y-98850500D01*
X115158995Y-98850500D01*
X115269890Y-98828441D01*
X115294328Y-98823580D01*
X115421811Y-98770775D01*
X115536542Y-98694114D01*
X115634114Y-98596542D01*
X115710775Y-98481811D01*
X115763580Y-98354328D01*
X115790500Y-98218993D01*
X115790500Y-98081007D01*
X115790500Y-98081004D01*
X115763581Y-97945677D01*
X115763580Y-97945676D01*
X115763580Y-97945672D01*
X115763578Y-97945667D01*
X115710778Y-97818195D01*
X115710771Y-97818182D01*
X115634114Y-97703458D01*
X115634111Y-97703454D01*
X115536545Y-97605888D01*
X115536541Y-97605885D01*
X115421817Y-97529228D01*
X115421804Y-97529221D01*
X115294332Y-97476421D01*
X115294322Y-97476418D01*
X115158995Y-97449500D01*
X115158993Y-97449500D01*
X115021007Y-97449500D01*
X115021005Y-97449500D01*
X114885677Y-97476418D01*
X114885667Y-97476421D01*
X114758195Y-97529221D01*
X114758182Y-97529228D01*
X114643458Y-97605885D01*
X114643454Y-97605888D01*
X114545888Y-97703454D01*
X114545885Y-97703458D01*
X114469228Y-97818182D01*
X114469221Y-97818195D01*
X114416421Y-97945667D01*
X114416418Y-97945677D01*
X114389500Y-98081004D01*
X114389500Y-98081007D01*
X114389500Y-98218993D01*
X114389500Y-98218995D01*
X114389499Y-98218995D01*
X112850000Y-98218995D01*
X112850000Y-92250882D01*
X112850012Y-92249144D01*
X112850327Y-92226651D01*
X112851489Y-92143713D01*
X114499500Y-92143713D01*
X114499500Y-92356287D01*
X114532754Y-92566243D01*
X114558305Y-92644882D01*
X114598444Y-92768414D01*
X114694951Y-92957820D01*
X114819890Y-93129786D01*
X114970213Y-93280109D01*
X115142179Y-93405048D01*
X115142181Y-93405049D01*
X115142184Y-93405051D01*
X115331588Y-93501557D01*
X115533757Y-93567246D01*
X115743713Y-93600500D01*
X115743714Y-93600500D01*
X115956286Y-93600500D01*
X115956287Y-93600500D01*
X116166243Y-93567246D01*
X116368412Y-93501557D01*
X116557816Y-93405051D01*
X116579789Y-93389086D01*
X116729786Y-93280109D01*
X116729788Y-93280106D01*
X116729792Y-93280104D01*
X116880104Y-93129792D01*
X116880106Y-93129788D01*
X116880109Y-93129786D01*
X117005048Y-92957820D01*
X117005047Y-92957820D01*
X117005051Y-92957816D01*
X117101557Y-92768412D01*
X117167246Y-92566243D01*
X117200500Y-92356287D01*
X117200500Y-92143713D01*
X117167246Y-91933757D01*
X117101557Y-91731588D01*
X117005051Y-91542184D01*
X117005049Y-91542181D01*
X117005048Y-91542179D01*
X116974403Y-91499999D01*
X120379364Y-91499999D01*
X120379364Y-91500000D01*
X121276988Y-91500000D01*
X121244075Y-91557007D01*
X121210000Y-91684174D01*
X121210000Y-91815826D01*
X121244075Y-91942993D01*
X121276988Y-92000000D01*
X120379364Y-92000000D01*
X120436567Y-92213486D01*
X120436570Y-92213492D01*
X120536399Y-92427578D01*
X120671894Y-92621082D01*
X120838917Y-92788105D01*
X121032421Y-92923600D01*
X121246507Y-93023429D01*
X121246516Y-93023433D01*
X121460000Y-93080634D01*
X121460000Y-92183012D01*
X121517007Y-92215925D01*
X121644174Y-92250000D01*
X121775826Y-92250000D01*
X121902993Y-92215925D01*
X121960000Y-92183012D01*
X121960000Y-93080633D01*
X122173483Y-93023433D01*
X122173492Y-93023429D01*
X122387578Y-92923600D01*
X122581082Y-92788105D01*
X122748105Y-92621082D01*
X122883600Y-92427578D01*
X122977294Y-92226651D01*
X123023466Y-92174212D01*
X123090660Y-92155060D01*
X123157541Y-92175276D01*
X123200676Y-92223785D01*
X123267632Y-92358253D01*
X123396127Y-92528406D01*
X123396128Y-92528407D01*
X123553698Y-92672052D01*
X123734981Y-92784298D01*
X123933802Y-92861321D01*
X124143390Y-92900500D01*
X124143392Y-92900500D01*
X124356608Y-92900500D01*
X124356610Y-92900500D01*
X124566198Y-92861321D01*
X124765019Y-92784298D01*
X124946302Y-92672052D01*
X125103872Y-92528407D01*
X125232366Y-92358255D01*
X125286270Y-92250000D01*
X125327403Y-92167394D01*
X125327403Y-92167393D01*
X125327405Y-92167389D01*
X125385756Y-91962310D01*
X125396529Y-91846047D01*
X125422315Y-91781111D01*
X125464622Y-91750804D01*
X125573130Y-91750804D01*
X125609503Y-91771668D01*
X125641693Y-91833681D01*
X125643470Y-91846047D01*
X125654244Y-91962310D01*
X125707675Y-92150099D01*
X125712596Y-92167392D01*
X125712596Y-92167394D01*
X125807632Y-92358253D01*
X125936127Y-92528406D01*
X125936128Y-92528407D01*
X126093698Y-92672052D01*
X126274981Y-92784298D01*
X126473802Y-92861321D01*
X126683390Y-92900500D01*
X126683392Y-92900500D01*
X126896608Y-92900500D01*
X126896610Y-92900500D01*
X127106198Y-92861321D01*
X127305019Y-92784298D01*
X127486302Y-92672052D01*
X127643872Y-92528407D01*
X127772366Y-92358255D01*
X127826270Y-92250000D01*
X127867403Y-92167394D01*
X127867403Y-92167393D01*
X127867405Y-92167389D01*
X127925756Y-91962310D01*
X127932029Y-91894605D01*
X127957814Y-91829669D01*
X128014614Y-91788981D01*
X128084395Y-91785461D01*
X128145002Y-91820225D01*
X128177193Y-91882238D01*
X128179500Y-91906047D01*
X128179500Y-92644856D01*
X128179502Y-92644882D01*
X128182413Y-92669987D01*
X128182415Y-92669991D01*
X128227793Y-92772764D01*
X128227794Y-92772765D01*
X128307235Y-92852206D01*
X128410009Y-92897585D01*
X128435135Y-92900500D01*
X130224864Y-92900499D01*
X130224879Y-92900497D01*
X130224882Y-92900497D01*
X130249987Y-92897586D01*
X130249988Y-92897585D01*
X130249991Y-92897585D01*
X130352765Y-92852206D01*
X130432206Y-92772765D01*
X130477585Y-92669991D01*
X130480500Y-92644865D01*
X130480499Y-91499999D01*
X134849364Y-91499999D01*
X134849364Y-91500000D01*
X135746988Y-91500000D01*
X135714075Y-91557007D01*
X135680000Y-91684174D01*
X135680000Y-91815826D01*
X135714075Y-91942993D01*
X135746988Y-92000000D01*
X134849364Y-92000000D01*
X134906567Y-92213486D01*
X134906570Y-92213492D01*
X135006399Y-92427578D01*
X135141894Y-92621082D01*
X135308917Y-92788105D01*
X135502421Y-92923600D01*
X135716507Y-93023429D01*
X135716516Y-93023433D01*
X135930000Y-93080634D01*
X135930000Y-92183012D01*
X135987007Y-92215925D01*
X136114174Y-92250000D01*
X136245826Y-92250000D01*
X136372993Y-92215925D01*
X136430000Y-92183012D01*
X136430000Y-93080633D01*
X136643483Y-93023433D01*
X136643492Y-93023429D01*
X136857578Y-92923600D01*
X137051082Y-92788105D01*
X137218105Y-92621082D01*
X137353600Y-92427578D01*
X137447294Y-92226651D01*
X137493466Y-92174212D01*
X137560660Y-92155060D01*
X137627541Y-92175276D01*
X137670676Y-92223785D01*
X137737632Y-92358253D01*
X137866127Y-92528406D01*
X137866128Y-92528407D01*
X138023698Y-92672052D01*
X138204981Y-92784298D01*
X138403802Y-92861321D01*
X138613390Y-92900500D01*
X138613392Y-92900500D01*
X138826608Y-92900500D01*
X138826610Y-92900500D01*
X139036198Y-92861321D01*
X139235019Y-92784298D01*
X139416302Y-92672052D01*
X139573872Y-92528407D01*
X139702366Y-92358255D01*
X139756270Y-92250000D01*
X139797403Y-92167394D01*
X139797403Y-92167393D01*
X139797405Y-92167389D01*
X139855756Y-91962310D01*
X139866529Y-91846047D01*
X139892315Y-91781111D01*
X139934622Y-91750804D01*
X140043130Y-91750804D01*
X140079503Y-91771668D01*
X140111693Y-91833681D01*
X140113470Y-91846047D01*
X140124244Y-91962310D01*
X140177675Y-92150099D01*
X140182596Y-92167392D01*
X140182596Y-92167394D01*
X140277632Y-92358253D01*
X140406127Y-92528406D01*
X140406128Y-92528407D01*
X140563698Y-92672052D01*
X140744981Y-92784298D01*
X140943802Y-92861321D01*
X141153390Y-92900500D01*
X141153392Y-92900500D01*
X141366608Y-92900500D01*
X141366610Y-92900500D01*
X141576198Y-92861321D01*
X141775019Y-92784298D01*
X141956302Y-92672052D01*
X142113872Y-92528407D01*
X142242366Y-92358255D01*
X142296270Y-92250000D01*
X142337403Y-92167394D01*
X142337403Y-92167393D01*
X142337405Y-92167389D01*
X142395756Y-91962310D01*
X142402029Y-91894605D01*
X142427814Y-91829669D01*
X142484614Y-91788981D01*
X142554395Y-91785461D01*
X142615002Y-91820225D01*
X142647193Y-91882238D01*
X142649500Y-91906047D01*
X142649500Y-92644856D01*
X142649502Y-92644882D01*
X142652413Y-92669987D01*
X142652415Y-92669991D01*
X142697793Y-92772764D01*
X142697794Y-92772765D01*
X142777235Y-92852206D01*
X142880009Y-92897585D01*
X142905135Y-92900500D01*
X144694864Y-92900499D01*
X144694879Y-92900497D01*
X144694882Y-92900497D01*
X144719987Y-92897586D01*
X144719988Y-92897585D01*
X144719991Y-92897585D01*
X144822765Y-92852206D01*
X144902206Y-92772765D01*
X144947585Y-92669991D01*
X144950500Y-92644865D01*
X144950500Y-92143713D01*
X149499500Y-92143713D01*
X149499500Y-92356287D01*
X149532754Y-92566243D01*
X149558305Y-92644882D01*
X149598444Y-92768414D01*
X149694951Y-92957820D01*
X149819890Y-93129786D01*
X149970213Y-93280109D01*
X150142179Y-93405048D01*
X150142181Y-93405049D01*
X150142184Y-93405051D01*
X150331588Y-93501557D01*
X150533757Y-93567246D01*
X150743713Y-93600500D01*
X150743714Y-93600500D01*
X150956286Y-93600500D01*
X150956287Y-93600500D01*
X151166243Y-93567246D01*
X151368412Y-93501557D01*
X151557816Y-93405051D01*
X151579789Y-93389086D01*
X151729786Y-93280109D01*
X151729788Y-93280106D01*
X151729792Y-93280104D01*
X151880104Y-93129792D01*
X151880106Y-93129788D01*
X151880109Y-93129786D01*
X152005048Y-92957820D01*
X152005047Y-92957820D01*
X152005051Y-92957816D01*
X152101557Y-92768412D01*
X152167246Y-92566243D01*
X152200500Y-92356287D01*
X152200500Y-92143713D01*
X152167246Y-91933757D01*
X152101557Y-91731588D01*
X152005051Y-91542184D01*
X152005049Y-91542181D01*
X152005048Y-91542179D01*
X151880109Y-91370213D01*
X151729786Y-91219890D01*
X151557820Y-91094951D01*
X151368414Y-90998444D01*
X151368413Y-90998443D01*
X151368412Y-90998443D01*
X151166243Y-90932754D01*
X151166241Y-90932753D01*
X151166240Y-90932753D01*
X151004957Y-90907208D01*
X150956287Y-90899500D01*
X150743713Y-90899500D01*
X150695042Y-90907208D01*
X150533760Y-90932753D01*
X150331585Y-90998444D01*
X150142179Y-91094951D01*
X149970213Y-91219890D01*
X149819890Y-91370213D01*
X149694951Y-91542179D01*
X149598444Y-91731585D01*
X149532753Y-91933760D01*
X149508367Y-92087729D01*
X149499500Y-92143713D01*
X144950500Y-92143713D01*
X144950499Y-90855136D01*
X144950497Y-90855117D01*
X144947586Y-90830012D01*
X144947585Y-90830010D01*
X144947585Y-90830009D01*
X144902206Y-90727235D01*
X144822765Y-90647794D01*
X144802124Y-90638680D01*
X144719992Y-90602415D01*
X144694865Y-90599500D01*
X142905143Y-90599500D01*
X142905117Y-90599502D01*
X142880012Y-90602413D01*
X142880008Y-90602415D01*
X142777235Y-90647793D01*
X142697794Y-90727234D01*
X142652415Y-90830006D01*
X142652415Y-90830008D01*
X142649500Y-90855131D01*
X142649500Y-91593951D01*
X142629815Y-91660990D01*
X142577011Y-91706745D01*
X142507853Y-91716689D01*
X142444297Y-91687664D01*
X142406523Y-91628886D01*
X142402029Y-91605391D01*
X142395756Y-91537689D01*
X142363873Y-91425635D01*
X142337405Y-91332611D01*
X142337403Y-91332606D01*
X142337403Y-91332605D01*
X142242367Y-91141746D01*
X142113872Y-90971593D01*
X142034790Y-90899500D01*
X141956302Y-90827948D01*
X141775019Y-90715702D01*
X141775017Y-90715701D01*
X141675608Y-90677190D01*
X141576198Y-90638679D01*
X141366610Y-90599500D01*
X141153390Y-90599500D01*
X140943802Y-90638679D01*
X140943799Y-90638679D01*
X140943799Y-90638680D01*
X140744982Y-90715701D01*
X140744980Y-90715702D01*
X140563699Y-90827947D01*
X140406127Y-90971593D01*
X140277632Y-91141746D01*
X140182596Y-91332605D01*
X140182596Y-91332607D01*
X140124244Y-91537689D01*
X140113471Y-91653951D01*
X140087685Y-91718888D01*
X140043130Y-91750804D01*
X139934622Y-91750804D01*
X139936869Y-91749194D01*
X139900497Y-91728331D01*
X139868307Y-91666318D01*
X139866529Y-91653951D01*
X139860969Y-91593951D01*
X139855756Y-91537690D01*
X139797405Y-91332611D01*
X139797403Y-91332606D01*
X139797403Y-91332605D01*
X139702367Y-91141746D01*
X139573872Y-90971593D01*
X139494790Y-90899500D01*
X139416302Y-90827948D01*
X139235019Y-90715702D01*
X139235017Y-90715701D01*
X139135608Y-90677190D01*
X139036198Y-90638679D01*
X138826610Y-90599500D01*
X138613390Y-90599500D01*
X138403802Y-90638679D01*
X138403799Y-90638679D01*
X138403799Y-90638680D01*
X138204982Y-90715701D01*
X138204980Y-90715702D01*
X138023699Y-90827947D01*
X137866127Y-90971593D01*
X137737634Y-91141744D01*
X137670676Y-91276215D01*
X137623173Y-91327452D01*
X137555510Y-91344873D01*
X137489170Y-91322947D01*
X137447294Y-91273348D01*
X137353600Y-91072422D01*
X137353599Y-91072420D01*
X137218113Y-90878926D01*
X137218108Y-90878920D01*
X137051082Y-90711894D01*
X136857578Y-90576399D01*
X136643492Y-90476570D01*
X136643486Y-90476567D01*
X136430000Y-90419364D01*
X136430000Y-91316988D01*
X136372993Y-91284075D01*
X136245826Y-91250000D01*
X136114174Y-91250000D01*
X135987007Y-91284075D01*
X135930000Y-91316988D01*
X135930000Y-90419364D01*
X135929999Y-90419364D01*
X135716513Y-90476567D01*
X135716507Y-90476570D01*
X135502422Y-90576399D01*
X135502420Y-90576400D01*
X135308926Y-90711886D01*
X135308920Y-90711891D01*
X135141891Y-90878920D01*
X135141886Y-90878926D01*
X135006400Y-91072420D01*
X135006399Y-91072422D01*
X134906570Y-91286507D01*
X134906567Y-91286513D01*
X134849364Y-91499999D01*
X130480499Y-91499999D01*
X130480499Y-90855136D01*
X130480497Y-90855117D01*
X130477586Y-90830012D01*
X130477585Y-90830010D01*
X130477585Y-90830009D01*
X130432206Y-90727235D01*
X130352765Y-90647794D01*
X130332124Y-90638680D01*
X130249992Y-90602415D01*
X130224865Y-90599500D01*
X128435143Y-90599500D01*
X128435117Y-90599502D01*
X128410012Y-90602413D01*
X128410008Y-90602415D01*
X128307235Y-90647793D01*
X128227794Y-90727234D01*
X128182415Y-90830006D01*
X128182415Y-90830008D01*
X128179500Y-90855131D01*
X128179500Y-91593951D01*
X128159815Y-91660990D01*
X128107011Y-91706745D01*
X128037853Y-91716689D01*
X127974297Y-91687664D01*
X127936523Y-91628886D01*
X127932029Y-91605391D01*
X127925756Y-91537689D01*
X127893873Y-91425635D01*
X127867405Y-91332611D01*
X127867403Y-91332606D01*
X127867403Y-91332605D01*
X127772367Y-91141746D01*
X127643872Y-90971593D01*
X127564790Y-90899500D01*
X127486302Y-90827948D01*
X127305019Y-90715702D01*
X127305017Y-90715701D01*
X127205608Y-90677190D01*
X127106198Y-90638679D01*
X126896610Y-90599500D01*
X126683390Y-90599500D01*
X126473802Y-90638679D01*
X126473799Y-90638679D01*
X126473799Y-90638680D01*
X126274982Y-90715701D01*
X126274980Y-90715702D01*
X126093699Y-90827947D01*
X125936127Y-90971593D01*
X125807632Y-91141746D01*
X125712596Y-91332605D01*
X125712596Y-91332607D01*
X125654244Y-91537689D01*
X125643471Y-91653951D01*
X125617685Y-91718888D01*
X125573130Y-91750804D01*
X125464622Y-91750804D01*
X125466869Y-91749194D01*
X125430497Y-91728331D01*
X125398307Y-91666318D01*
X125396529Y-91653951D01*
X125390969Y-91593951D01*
X125385756Y-91537690D01*
X125327405Y-91332611D01*
X125327403Y-91332606D01*
X125327403Y-91332605D01*
X125232367Y-91141746D01*
X125103872Y-90971593D01*
X125024790Y-90899500D01*
X124946302Y-90827948D01*
X124765019Y-90715702D01*
X124765017Y-90715701D01*
X124665608Y-90677190D01*
X124566198Y-90638679D01*
X124356610Y-90599500D01*
X124143390Y-90599500D01*
X123933802Y-90638679D01*
X123933799Y-90638679D01*
X123933799Y-90638680D01*
X123734982Y-90715701D01*
X123734980Y-90715702D01*
X123553699Y-90827947D01*
X123396127Y-90971593D01*
X123267634Y-91141744D01*
X123200676Y-91276215D01*
X123153173Y-91327452D01*
X123085510Y-91344873D01*
X123019170Y-91322947D01*
X122977294Y-91273348D01*
X122883600Y-91072422D01*
X122883599Y-91072420D01*
X122748113Y-90878926D01*
X122748108Y-90878920D01*
X122581082Y-90711894D01*
X122387578Y-90576399D01*
X122173492Y-90476570D01*
X122173486Y-90476567D01*
X121960000Y-90419364D01*
X121960000Y-91316988D01*
X121902993Y-91284075D01*
X121775826Y-91250000D01*
X121644174Y-91250000D01*
X121517007Y-91284075D01*
X121460000Y-91316988D01*
X121460000Y-90419364D01*
X121459999Y-90419364D01*
X121246513Y-90476567D01*
X121246507Y-90476570D01*
X121032422Y-90576399D01*
X121032420Y-90576400D01*
X120838926Y-90711886D01*
X120838920Y-90711891D01*
X120671891Y-90878920D01*
X120671886Y-90878926D01*
X120536400Y-91072420D01*
X120536399Y-91072422D01*
X120436570Y-91286507D01*
X120436567Y-91286513D01*
X120379364Y-91499999D01*
X116974403Y-91499999D01*
X116880109Y-91370213D01*
X116729786Y-91219890D01*
X116557820Y-91094951D01*
X116368414Y-90998444D01*
X116368413Y-90998443D01*
X116368412Y-90998443D01*
X116166243Y-90932754D01*
X116166241Y-90932753D01*
X116166240Y-90932753D01*
X116004957Y-90907208D01*
X115956287Y-90899500D01*
X115743713Y-90899500D01*
X115695042Y-90907208D01*
X115533760Y-90932753D01*
X115331585Y-90998444D01*
X115142179Y-91094951D01*
X114970213Y-91219890D01*
X114819890Y-91370213D01*
X114694951Y-91542179D01*
X114598444Y-91731585D01*
X114532753Y-91933760D01*
X114508367Y-92087729D01*
X114499500Y-92143713D01*
X112851489Y-92143713D01*
X112852274Y-92087729D01*
X112853041Y-92075610D01*
X112889277Y-91754005D01*
X112891606Y-91740299D01*
X112937850Y-91537689D01*
X112963427Y-91425627D01*
X112967272Y-91412279D01*
X113073883Y-91107601D01*
X113079196Y-91094777D01*
X113219243Y-90803965D01*
X113225959Y-90791813D01*
X113397693Y-90518501D01*
X113405723Y-90507183D01*
X113606979Y-90254816D01*
X113616228Y-90244467D01*
X113844467Y-90016228D01*
X113854816Y-90006979D01*
X114107183Y-89805723D01*
X114118501Y-89797693D01*
X114391813Y-89625959D01*
X114403965Y-89619243D01*
X114694777Y-89479196D01*
X114707601Y-89473883D01*
X115012279Y-89367272D01*
X115025627Y-89363427D01*
X115243293Y-89313746D01*
X115340299Y-89291606D01*
X115354005Y-89289277D01*
X115675610Y-89253041D01*
X115687729Y-89252274D01*
X115849144Y-89250011D01*
X115850882Y-89250000D01*
X150849118Y-89250000D01*
X150850855Y-89250011D01*
G37*
%TD.AperFunction*%
%TD*%
M02*
