M48
; DRILL file {KiCad 8.0.4} date 2024-08-10T16:36:38+0300
; FORMAT={-:-/ absolute / metric / decimal}
; #@! TF.CreationDate,2024-08-10T16:36:38+03:00
; #@! TF.GenerationSoftware,Kicad,Pcbnew,8.0.4
; #@! TF.FileFunction,MixedPlating,1,2
FMAT,2
METRIC
; #@! TA.AperFunction,Plated,PTH,ViaDrill
T1C0.300
; #@! TA.AperFunction,Plated,PTH,ViaDrill
T2C0.400
; #@! TA.AperFunction,Plated,PTH,ComponentDrill
T3C0.550
; #@! TA.AperFunction,Plated,PTH,ComponentDrill
T4C0.850
; #@! TA.AperFunction,Plated,PTH,ComponentDrill
T5C1.000
; #@! TA.AperFunction,NonPlated,NPTH,ComponentDrill
T6C0.800
; #@! TA.AperFunction,NonPlated,NPTH,ComponentDrill
T7C0.900
; #@! TA.AperFunction,NonPlated,NPTH,ComponentDrill
T8C2.200
%
G90
G05
T1
X117.3Y-96.45
X119.6Y-106.3
X120.7Y-100.8
X122.2Y-108.04
X122.2Y-111.25
X122.4Y-101.15
X123.285Y-103.799
X123.9Y-100.15
X125.05Y-115.45
X126.8Y-115.4
X127.6Y-101.9
X127.6Y-105.7
X128.605Y-110.405
X128.704Y-112.798
X130.67Y-112.77
X132.1Y-107.6
X136.65Y-102.75
X146.35Y-102.05
X149.7Y-108.9
X149.7Y-110.45
X150.65Y-109.7
T2
X140.8Y-111.65
X141.2Y-107.1
X141.2Y-108.0
X141.85Y-111.6
X145.4Y-112.25
T5
X121.71Y-91.75
X123.97Y-117.6
X124.25Y-91.75
X126.51Y-117.6
X126.79Y-91.75
X129.05Y-117.6
X129.33Y-91.75
X131.59Y-117.6
X136.18Y-91.75
X138.72Y-91.75
X141.26Y-91.75
X143.8Y-91.75
T6
X148.7Y-100.85
X148.7Y-105.85
T7
X115.09Y-98.15
X115.09Y-101.15
T8
X115.85Y-92.25
X115.85Y-117.25
X150.85Y-92.25
X150.85Y-117.25
T3
G00X151.125Y-99.475
M15
G01X151.775Y-99.475
M16
G05
G00X151.125Y-107.225
M15
G01X151.775Y-107.225
M16
G05
T4
G00X147.375Y-99.625
M15
G01X147.925Y-99.625
M16
G05
G00X147.375Y-107.075
M15
G01X147.925Y-107.075
M16
G05
M30
