%TF.GenerationSoftware,KiCad,Pcbnew,8.0.4*%
%TF.CreationDate,2024-08-10T16:36:54+03:00*%
%TF.ProjectId,KiCad_Course,4b694361-645f-4436-9f75-7273652e6b69,rev?*%
%TF.SameCoordinates,Original*%
%TF.FileFunction,Copper,L1,Top*%
%TF.FilePolarity,Positive*%
%FSLAX46Y46*%
G04 Gerber Fmt 4.6, Leading zero omitted, Abs format (unit mm)*
G04 Created by KiCad (PCBNEW 8.0.4) date 2024-08-10 16:36:54*
%MOMM*%
%LPD*%
G01*
G04 APERTURE LIST*
G04 Aperture macros list*
%AMRoundRect*
0 Rectangle with rounded corners*
0 $1 Rounding radius*
0 $2 $3 $4 $5 $6 $7 $8 $9 X,Y pos of 4 corners*
0 Add a 4 corners polygon primitive as box body*
4,1,4,$2,$3,$4,$5,$6,$7,$8,$9,$2,$3,0*
0 Add four circle primitives for the rounded corners*
1,1,$1+$1,$2,$3*
1,1,$1+$1,$4,$5*
1,1,$1+$1,$6,$7*
1,1,$1+$1,$8,$9*
0 Add four rect primitives between the rounded corners*
20,1,$1+$1,$2,$3,$4,$5,0*
20,1,$1+$1,$4,$5,$6,$7,0*
20,1,$1+$1,$6,$7,$8,$9,0*
20,1,$1+$1,$8,$9,$2,$3,0*%
G04 Aperture macros list end*
%TA.AperFunction,SMDPad,CuDef*%
%ADD10R,1.200000X1.400000*%
%TD*%
%TA.AperFunction,SMDPad,CuDef*%
%ADD11RoundRect,0.140000X0.140000X0.170000X-0.140000X0.170000X-0.140000X-0.170000X0.140000X-0.170000X0*%
%TD*%
%TA.AperFunction,SMDPad,CuDef*%
%ADD12RoundRect,0.075000X-0.662500X-0.075000X0.662500X-0.075000X0.662500X0.075000X-0.662500X0.075000X0*%
%TD*%
%TA.AperFunction,SMDPad,CuDef*%
%ADD13RoundRect,0.075000X-0.075000X-0.662500X0.075000X-0.662500X0.075000X0.662500X-0.075000X0.662500X0*%
%TD*%
%TA.AperFunction,SMDPad,CuDef*%
%ADD14RoundRect,0.225000X-0.225000X-0.250000X0.225000X-0.250000X0.225000X0.250000X-0.225000X0.250000X0*%
%TD*%
%TA.AperFunction,SMDPad,CuDef*%
%ADD15RoundRect,0.135000X0.135000X0.185000X-0.135000X0.185000X-0.135000X-0.185000X0.135000X-0.185000X0*%
%TD*%
%TA.AperFunction,SMDPad,CuDef*%
%ADD16RoundRect,0.140000X-0.140000X-0.170000X0.140000X-0.170000X0.140000X0.170000X-0.140000X0.170000X0*%
%TD*%
%TA.AperFunction,SMDPad,CuDef*%
%ADD17RoundRect,0.140000X0.170000X-0.140000X0.170000X0.140000X-0.170000X0.140000X-0.170000X-0.140000X0*%
%TD*%
%TA.AperFunction,SMDPad,CuDef*%
%ADD18RoundRect,0.250000X-0.250000X-0.475000X0.250000X-0.475000X0.250000X0.475000X-0.250000X0.475000X0*%
%TD*%
%TA.AperFunction,SMDPad,CuDef*%
%ADD19R,0.800000X1.000000*%
%TD*%
%TA.AperFunction,SMDPad,CuDef*%
%ADD20R,1.500000X0.700000*%
%TD*%
%TA.AperFunction,ComponentPad*%
%ADD21R,1.700000X1.700000*%
%TD*%
%TA.AperFunction,ComponentPad*%
%ADD22O,1.700000X1.700000*%
%TD*%
%TA.AperFunction,SMDPad,CuDef*%
%ADD23RoundRect,0.135000X-0.135000X-0.185000X0.135000X-0.185000X0.135000X0.185000X-0.135000X0.185000X0*%
%TD*%
%TA.AperFunction,SMDPad,CuDef*%
%ADD24RoundRect,0.135000X0.185000X-0.135000X0.185000X0.135000X-0.185000X0.135000X-0.185000X-0.135000X0*%
%TD*%
%TA.AperFunction,SMDPad,CuDef*%
%ADD25RoundRect,0.218750X-0.256250X0.218750X-0.256250X-0.218750X0.256250X-0.218750X0.256250X0.218750X0*%
%TD*%
%TA.AperFunction,SMDPad,CuDef*%
%ADD26RoundRect,0.140000X-0.170000X0.140000X-0.170000X-0.140000X0.170000X-0.140000X0.170000X0.140000X0*%
%TD*%
%TA.AperFunction,SMDPad,CuDef*%
%ADD27RoundRect,0.135000X-0.185000X0.135000X-0.185000X-0.135000X0.185000X-0.135000X0.185000X0.135000X0*%
%TD*%
%TA.AperFunction,SMDPad,CuDef*%
%ADD28RoundRect,0.250000X0.475000X-0.250000X0.475000X0.250000X-0.475000X0.250000X-0.475000X-0.250000X0*%
%TD*%
%TA.AperFunction,SMDPad,CuDef*%
%ADD29R,1.300000X0.450000*%
%TD*%
%TA.AperFunction,ComponentPad*%
%ADD30O,1.800000X1.150000*%
%TD*%
%TA.AperFunction,ComponentPad*%
%ADD31O,2.000000X1.450000*%
%TD*%
%TA.AperFunction,SMDPad,CuDef*%
%ADD32RoundRect,0.375000X-0.375000X0.625000X-0.375000X-0.625000X0.375000X-0.625000X0.375000X0.625000X0*%
%TD*%
%TA.AperFunction,SMDPad,CuDef*%
%ADD33RoundRect,0.500000X-1.400000X0.500000X-1.400000X-0.500000X1.400000X-0.500000X1.400000X0.500000X0*%
%TD*%
%TA.AperFunction,ViaPad*%
%ADD34C,0.700000*%
%TD*%
%TA.AperFunction,ViaPad*%
%ADD35C,0.800000*%
%TD*%
%TA.AperFunction,Conductor*%
%ADD36C,0.500000*%
%TD*%
%TA.AperFunction,Conductor*%
%ADD37C,0.300000*%
%TD*%
%TA.AperFunction,Conductor*%
%ADD38C,0.200000*%
%TD*%
G04 APERTURE END LIST*
D10*
%TO.P,Y1,1,1*%
%TO.N,/HSE_IN*%
X119000000Y-102430000D03*
%TO.P,Y1,2,2*%
%TO.N,GND*%
X119000000Y-104630000D03*
%TO.P,Y1,3,3*%
%TO.N,/HSE_OUT*%
X120700000Y-104630000D03*
%TO.P,Y1,4,4*%
%TO.N,GND*%
X120700000Y-102430000D03*
%TD*%
D11*
%TO.P,C7,1*%
%TO.N,+3.3VA*%
X123180000Y-108940000D03*
%TO.P,C7,2*%
%TO.N,GND*%
X122220000Y-108940000D03*
%TD*%
D12*
%TO.P,U2,1,VBAT*%
%TO.N,+3.3V*%
X125687500Y-101987500D03*
%TO.P,U2,2,PC13*%
%TO.N,unconnected-(U2-PC13-Pad2)*%
X125687500Y-102487500D03*
%TO.P,U2,3,PC14*%
%TO.N,unconnected-(U2-PC14-Pad3)*%
X125687500Y-102987500D03*
%TO.P,U2,4,PC15*%
%TO.N,unconnected-(U2-PC15-Pad4)*%
X125687500Y-103487500D03*
%TO.P,U2,5,PD0*%
%TO.N,/HSE_IN*%
X125687500Y-103987500D03*
%TO.P,U2,6,PD1*%
%TO.N,/HSE_OUT*%
X125687500Y-104487500D03*
%TO.P,U2,7,NRST*%
%TO.N,/NRST*%
X125687500Y-104987500D03*
%TO.P,U2,8,VSSA*%
%TO.N,GND*%
X125687500Y-105487500D03*
%TO.P,U2,9,VDDA*%
%TO.N,+3.3VA*%
X125687500Y-105987500D03*
%TO.P,U2,10,PA0*%
%TO.N,unconnected-(U2-PA0-Pad10)*%
X125687500Y-106487500D03*
%TO.P,U2,11,PA1*%
%TO.N,unconnected-(U2-PA1-Pad11)*%
X125687500Y-106987500D03*
%TO.P,U2,12,PA2*%
%TO.N,unconnected-(U2-PA2-Pad12)*%
X125687500Y-107487500D03*
D13*
%TO.P,U2,13,PA3*%
%TO.N,unconnected-(U2-PA3-Pad13)*%
X127100000Y-108900000D03*
%TO.P,U2,14,PA4*%
%TO.N,unconnected-(U2-PA4-Pad14)*%
X127600000Y-108900000D03*
%TO.P,U2,15,PA5*%
%TO.N,unconnected-(U2-PA5-Pad15)*%
X128100000Y-108900000D03*
%TO.P,U2,16,PA6*%
%TO.N,unconnected-(U2-PA6-Pad16)*%
X128600000Y-108900000D03*
%TO.P,U2,17,PA7*%
%TO.N,unconnected-(U2-PA7-Pad17)*%
X129100000Y-108900000D03*
%TO.P,U2,18,PB0*%
%TO.N,unconnected-(U2-PB0-Pad18)*%
X129600000Y-108900000D03*
%TO.P,U2,19,PB1*%
%TO.N,unconnected-(U2-PB1-Pad19)*%
X130100000Y-108900000D03*
%TO.P,U2,20,PB2*%
%TO.N,unconnected-(U2-PB2-Pad20)*%
X130600000Y-108900000D03*
%TO.P,U2,21,PB10*%
%TO.N,/I2C2_SCL*%
X131100000Y-108900000D03*
%TO.P,U2,22,PB11*%
%TO.N,/I2C2_SDA*%
X131600000Y-108900000D03*
%TO.P,U2,23,VSS*%
%TO.N,GND*%
X132100000Y-108900000D03*
%TO.P,U2,24,VDD*%
%TO.N,+3.3V*%
X132600000Y-108900000D03*
D12*
%TO.P,U2,25,PB12*%
%TO.N,unconnected-(U2-PB12-Pad25)*%
X134012500Y-107487500D03*
%TO.P,U2,26,PB13*%
%TO.N,unconnected-(U2-PB13-Pad26)*%
X134012500Y-106987500D03*
%TO.P,U2,27,PB14*%
%TO.N,unconnected-(U2-PB14-Pad27)*%
X134012500Y-106487500D03*
%TO.P,U2,28,PB15*%
%TO.N,unconnected-(U2-PB15-Pad28)*%
X134012500Y-105987500D03*
%TO.P,U2,29,PA8*%
%TO.N,unconnected-(U2-PA8-Pad29)*%
X134012500Y-105487500D03*
%TO.P,U2,30,PA9*%
%TO.N,unconnected-(U2-PA9-Pad30)*%
X134012500Y-104987500D03*
%TO.P,U2,31,PA10*%
%TO.N,unconnected-(U2-PA10-Pad31)*%
X134012500Y-104487500D03*
%TO.P,U2,32,PA11*%
%TO.N,/USB_D-*%
X134012500Y-103987500D03*
%TO.P,U2,33,PA12*%
%TO.N,/USB_D+*%
X134012500Y-103487500D03*
%TO.P,U2,34,PA13*%
%TO.N,/SWDIO*%
X134012500Y-102987500D03*
%TO.P,U2,35,VSS*%
%TO.N,GND*%
X134012500Y-102487500D03*
%TO.P,U2,36,VDD*%
%TO.N,+3.3V*%
X134012500Y-101987500D03*
D13*
%TO.P,U2,37,PA14*%
%TO.N,/SWCLK*%
X132600000Y-100575000D03*
%TO.P,U2,38,PA15*%
%TO.N,unconnected-(U2-PA15-Pad38)*%
X132100000Y-100575000D03*
%TO.P,U2,39,PB3*%
%TO.N,unconnected-(U2-PB3-Pad39)*%
X131600000Y-100575000D03*
%TO.P,U2,40,PB4*%
%TO.N,unconnected-(U2-PB4-Pad40)*%
X131100000Y-100575000D03*
%TO.P,U2,41,PB5*%
%TO.N,unconnected-(U2-PB5-Pad41)*%
X130600000Y-100575000D03*
%TO.P,U2,42,PB6*%
%TO.N,/USART1_TX*%
X130100000Y-100575000D03*
%TO.P,U2,43,PB7*%
%TO.N,/USART1_RX*%
X129600000Y-100575000D03*
%TO.P,U2,44,BOOT0*%
%TO.N,/BOOT0*%
X129100000Y-100575000D03*
%TO.P,U2,45,PB8*%
%TO.N,unconnected-(U2-PB8-Pad45)*%
X128600000Y-100575000D03*
%TO.P,U2,46,PB9*%
%TO.N,unconnected-(U2-PB9-Pad46)*%
X128100000Y-100575000D03*
%TO.P,U2,47,VSS*%
%TO.N,GND*%
X127600000Y-100575000D03*
%TO.P,U2,48,VDD*%
%TO.N,+3.3V*%
X127100000Y-100575000D03*
%TD*%
D14*
%TO.P,C1,1*%
%TO.N,+3.3V*%
X126650000Y-96900000D03*
%TO.P,C1,2*%
%TO.N,GND*%
X128200000Y-96900000D03*
%TD*%
D11*
%TO.P,C8,1*%
%TO.N,+3.3V*%
X123200000Y-110350000D03*
%TO.P,C8,2*%
%TO.N,GND*%
X122240000Y-110350000D03*
%TD*%
D15*
%TO.P,R1,1*%
%TO.N,GND*%
X148400000Y-109700000D03*
%TO.P,R1,2*%
%TO.N,/PWR_LED_K*%
X147380000Y-109700000D03*
%TD*%
D16*
%TO.P,C5,1*%
%TO.N,+3.3V*%
X126900000Y-98400000D03*
%TO.P,C5,2*%
%TO.N,GND*%
X127860000Y-98400000D03*
%TD*%
D17*
%TO.P,C2,1*%
%TO.N,+3.3V*%
X123900000Y-101980000D03*
%TO.P,C2,2*%
%TO.N,GND*%
X123900000Y-101020000D03*
%TD*%
D18*
%TO.P,C9,1*%
%TO.N,VBUS*%
X137950000Y-107450000D03*
%TO.P,C9,2*%
%TO.N,GND*%
X139850000Y-107450000D03*
%TD*%
D19*
%TO.P,SW1,*%
%TO.N,*%
X116200000Y-96000000D03*
X113990000Y-96000000D03*
X116200000Y-103300000D03*
X113990000Y-103300000D03*
D20*
%TO.P,SW1,1,A*%
%TO.N,GND*%
X116850000Y-97400000D03*
%TO.P,SW1,2,B*%
%TO.N,/SW_BOOT0*%
X116850000Y-100400000D03*
%TO.P,SW1,3,C*%
%TO.N,+3.3V*%
X116850000Y-101900000D03*
%TD*%
D21*
%TO.P,J2,1,Pin_1*%
%TO.N,+3.3V*%
X143800000Y-91750000D03*
D22*
%TO.P,J2,2,Pin_2*%
%TO.N,/SWDIO*%
X141260000Y-91750000D03*
%TO.P,J2,3,Pin_3*%
%TO.N,/SWCLK*%
X138720000Y-91750000D03*
%TO.P,J2,4,Pin_4*%
%TO.N,GND*%
X136180000Y-91750000D03*
%TD*%
D15*
%TO.P,R5,1*%
%TO.N,/I2C2_SDA*%
X129320000Y-114000000D03*
%TO.P,R5,2*%
%TO.N,+3.3V*%
X128300000Y-114000000D03*
%TD*%
D23*
%TO.P,R4,1*%
%TO.N,/I2C2_SCL*%
X126000000Y-114000000D03*
%TO.P,R4,2*%
%TO.N,+3.3V*%
X127020000Y-114000000D03*
%TD*%
D24*
%TO.P,R2,1*%
%TO.N,/SW_BOOT0*%
X119000000Y-100370000D03*
%TO.P,R2,2*%
%TO.N,/BOOT0*%
X119000000Y-99350000D03*
%TD*%
D25*
%TO.P,D1,1,K*%
%TO.N,/PWR_LED_K*%
X147400000Y-111650000D03*
%TO.P,D1,2,A*%
%TO.N,+3.3V*%
X147400000Y-113225000D03*
%TD*%
%TO.P,FB1,1*%
%TO.N,+3.3VA*%
X124650000Y-108912500D03*
%TO.P,FB1,2*%
%TO.N,+3.3V*%
X124650000Y-110487500D03*
%TD*%
D26*
%TO.P,C4,1*%
%TO.N,+3.3V*%
X135750000Y-101750000D03*
%TO.P,C4,2*%
%TO.N,GND*%
X135750000Y-102710000D03*
%TD*%
D27*
%TO.P,R3,1*%
%TO.N,+3.3V*%
X139250000Y-102330000D03*
%TO.P,R3,2*%
%TO.N,/USB_D+*%
X139250000Y-103350000D03*
%TD*%
D17*
%TO.P,C6,1*%
%TO.N,+3.3VA*%
X123850000Y-106260000D03*
%TO.P,C6,2*%
%TO.N,GND*%
X123850000Y-105300000D03*
%TD*%
%TO.P,C12,1*%
%TO.N,/HSE_IN*%
X122400000Y-103010000D03*
%TO.P,C12,2*%
%TO.N,GND*%
X122400000Y-102050000D03*
%TD*%
D16*
%TO.P,C11,1*%
%TO.N,/NRST*%
X126770000Y-110650000D03*
%TO.P,C11,2*%
%TO.N,GND*%
X127730000Y-110650000D03*
%TD*%
D21*
%TO.P,J4,1,Pin_1*%
%TO.N,+3.3V*%
X123970000Y-117600000D03*
D22*
%TO.P,J4,2,Pin_2*%
%TO.N,/I2C2_SCL*%
X126510000Y-117600000D03*
%TO.P,J4,3,Pin_3*%
%TO.N,/I2C2_SDA*%
X129050000Y-117600000D03*
%TO.P,J4,4,Pin_4*%
%TO.N,GND*%
X131590000Y-117600000D03*
%TD*%
D28*
%TO.P,C10,1*%
%TO.N,+3.3V*%
X144100000Y-114150000D03*
%TO.P,C10,2*%
%TO.N,GND*%
X144100000Y-112250000D03*
%TD*%
D29*
%TO.P,J1,1,VBUS*%
%TO.N,VBUS*%
X147600000Y-104650000D03*
%TO.P,J1,2,D-*%
%TO.N,/USB_D-*%
X147600000Y-104000000D03*
%TO.P,J1,3,D+*%
%TO.N,/USB_D+*%
X147600000Y-103350000D03*
%TO.P,J1,4,ID*%
%TO.N,unconnected-(J1-ID-Pad4)*%
X147600000Y-102700000D03*
%TO.P,J1,5,GND*%
%TO.N,GND*%
X147600000Y-102050000D03*
D30*
%TO.P,J1,6,Shield*%
%TO.N,unconnected-(J1-Shield-Pad6)*%
X151450000Y-107225000D03*
D31*
%TO.N,unconnected-(J1-Shield-Pad6)_2*%
X147650000Y-107075000D03*
%TO.N,unconnected-(J1-Shield-Pad6)_1*%
X147650000Y-99625000D03*
D30*
%TO.N,unconnected-(J1-Shield-Pad6)_3*%
X151450000Y-99475000D03*
%TD*%
D11*
%TO.P,C3,1*%
%TO.N,+3.3V*%
X133110000Y-110650000D03*
%TO.P,C3,2*%
%TO.N,GND*%
X132150000Y-110650000D03*
%TD*%
D17*
%TO.P,C13,1*%
%TO.N,/HSE_OUT*%
X122400000Y-105040000D03*
%TO.P,C13,2*%
%TO.N,GND*%
X122400000Y-104080000D03*
%TD*%
D32*
%TO.P,U1,1,GND*%
%TO.N,GND*%
X141250000Y-109950000D03*
%TO.P,U1,2,VO*%
%TO.N,+3.3V*%
X138950000Y-109950000D03*
D33*
X138950000Y-116250000D03*
D32*
%TO.P,U1,3,VI*%
%TO.N,VBUS*%
X136650000Y-109950000D03*
%TD*%
D21*
%TO.P,J3,1,Pin_1*%
%TO.N,+3.3V*%
X129330000Y-91750000D03*
D22*
%TO.P,J3,2,Pin_2*%
%TO.N,/USART1_TX*%
X126790000Y-91750000D03*
%TO.P,J3,3,Pin_3*%
%TO.N,/USART1_RX*%
X124250000Y-91750000D03*
%TO.P,J3,4,Pin_4*%
%TO.N,GND*%
X121710000Y-91750000D03*
%TD*%
D34*
%TO.N,+3.3V*%
X149700000Y-110450000D03*
X128703669Y-112798130D03*
X125050000Y-115450000D03*
X149700000Y-108900000D03*
X126800000Y-115400000D03*
X130669975Y-112769975D03*
%TO.N,GND*%
X146350000Y-102050000D03*
X136650000Y-102750000D03*
X132100000Y-107600000D03*
D35*
X141850000Y-111600000D03*
X145400000Y-112250000D03*
X141200000Y-107100000D03*
X140800000Y-111650000D03*
D34*
X127600000Y-101900000D03*
X150650000Y-109700000D03*
X127600000Y-105700000D03*
X123900000Y-100150000D03*
X122200000Y-111250000D03*
X117300000Y-96450000D03*
X122200000Y-108040000D03*
X122400000Y-101150000D03*
D35*
X141200000Y-108000000D03*
D34*
X128605025Y-110405025D03*
X120700000Y-100800000D03*
X123285037Y-103799202D03*
X119600000Y-106300000D03*
%TD*%
D36*
%TO.N,+3.3V*%
X124150000Y-110987500D02*
X124150000Y-112650000D01*
X117250000Y-112350000D02*
X117250000Y-102300000D01*
D37*
X132600000Y-108900000D02*
X132600000Y-109900000D01*
X135750000Y-101750000D02*
X138670000Y-101750000D01*
D36*
X119900000Y-100800000D02*
X119900000Y-99300000D01*
D37*
X125680000Y-101980000D02*
X125687500Y-101987500D01*
X134400000Y-112950000D02*
X134400000Y-118000000D01*
D36*
X119900000Y-99300000D02*
X122300000Y-96900000D01*
D37*
X134400000Y-112750000D02*
X134400000Y-112950000D01*
X134400000Y-118000000D02*
X135300000Y-118900000D01*
X132600000Y-109900000D02*
X133110000Y-110410000D01*
X135250000Y-101750000D02*
X135750000Y-101750000D01*
D36*
X124650000Y-110487500D02*
X124150000Y-110987500D01*
D37*
X130689950Y-112750000D02*
X130669975Y-112769975D01*
X134012500Y-101987500D02*
X134987500Y-101987500D01*
X145700000Y-118050000D02*
X145700000Y-114150000D01*
D36*
X143800000Y-91750000D02*
X143800000Y-90600000D01*
D37*
X134400000Y-111950000D02*
X134400000Y-112750000D01*
D36*
X124700000Y-98400000D02*
X125687500Y-99387500D01*
X123950000Y-115450000D02*
X122900000Y-115450000D01*
X123200000Y-110350000D02*
X124512500Y-110350000D01*
X147200000Y-95950000D02*
X145050000Y-95950000D01*
D37*
X134987500Y-101987500D02*
X135000000Y-102000000D01*
X135000000Y-102000000D02*
X135250000Y-101750000D01*
D36*
X124700000Y-96900000D02*
X126650000Y-96900000D01*
D37*
X133110000Y-110650000D02*
X133110000Y-110660000D01*
D36*
X143200000Y-90000000D02*
X129850000Y-90000000D01*
X128300000Y-114000000D02*
X127020000Y-114000000D01*
D37*
X133110000Y-110410000D02*
X133110000Y-110650000D01*
D36*
X122900000Y-113900000D02*
X122900000Y-115450000D01*
X123970000Y-117600000D02*
X123970000Y-115470000D01*
X117250000Y-102300000D02*
X116850000Y-101900000D01*
D37*
X134400000Y-112750000D02*
X130689950Y-112750000D01*
D36*
X149700000Y-98450000D02*
X147200000Y-95950000D01*
X149700000Y-108900000D02*
X149700000Y-98450000D01*
X143800000Y-94700000D02*
X143800000Y-91750000D01*
D37*
X138670000Y-101750000D02*
X139250000Y-102330000D01*
X123900000Y-101980000D02*
X125680000Y-101980000D01*
D36*
X149700000Y-112250000D02*
X149700000Y-110450000D01*
D37*
X133110000Y-110660000D02*
X134400000Y-111950000D01*
X139250000Y-102330000D02*
X139920000Y-102330000D01*
X145050000Y-97200000D02*
X145050000Y-95950000D01*
D36*
X129330000Y-90520000D02*
X129330000Y-91750000D01*
X128300000Y-113201799D02*
X128703669Y-112798130D01*
X147400000Y-113225000D02*
X146625000Y-113225000D01*
X125687500Y-99387500D02*
X125687500Y-101887500D01*
X146625000Y-113225000D02*
X145700000Y-114150000D01*
X120350000Y-115450000D02*
X117250000Y-112350000D01*
X125050000Y-115450000D02*
X123950000Y-115450000D01*
X127020000Y-115180000D02*
X126800000Y-115400000D01*
X117350000Y-101900000D02*
X118160000Y-101090000D01*
X145050000Y-95950000D02*
X143800000Y-94700000D01*
D37*
X127100000Y-99700000D02*
X126900000Y-99500000D01*
D36*
X143800000Y-90600000D02*
X143200000Y-90000000D01*
X118160000Y-101090000D02*
X119610000Y-101090000D01*
X124150000Y-112650000D02*
X122900000Y-113900000D01*
X145700000Y-114150000D02*
X144100000Y-114150000D01*
X119610000Y-101090000D02*
X119900000Y-100800000D01*
D37*
X139920000Y-102330000D02*
X145050000Y-97200000D01*
D36*
X148725000Y-113225000D02*
X149700000Y-112250000D01*
X126650000Y-96900000D02*
X126650000Y-97650000D01*
X124700000Y-96900000D02*
X124700000Y-98400000D01*
X123970000Y-115470000D02*
X123950000Y-115450000D01*
X124512500Y-110350000D02*
X124650000Y-110487500D01*
D37*
X135300000Y-118900000D02*
X144850000Y-118900000D01*
D36*
X127020000Y-114000000D02*
X127020000Y-115180000D01*
X129850000Y-90000000D02*
X129330000Y-90520000D01*
X122900000Y-115450000D02*
X120350000Y-115450000D01*
D37*
X126900000Y-99500000D02*
X126900000Y-98400000D01*
D36*
X116850000Y-101900000D02*
X117350000Y-101900000D01*
X122300000Y-96900000D02*
X124700000Y-96900000D01*
X126900000Y-97900000D02*
X126900000Y-98400000D01*
D37*
X144850000Y-118900000D02*
X145700000Y-118050000D01*
D36*
X147400000Y-113225000D02*
X148725000Y-113225000D01*
X128300000Y-114000000D02*
X128300000Y-113201799D01*
D37*
X127100000Y-100575000D02*
X127100000Y-99700000D01*
D36*
X126650000Y-97650000D02*
X126900000Y-97900000D01*
D37*
%TO.N,GND*%
X134887500Y-102487500D02*
X135110000Y-102710000D01*
D36*
X117300000Y-97200000D02*
X117100000Y-97400000D01*
D37*
X127850000Y-99500000D02*
X127860000Y-99490000D01*
D36*
X123900000Y-101020000D02*
X123900000Y-100150000D01*
D37*
X136610000Y-102710000D02*
X136650000Y-102750000D01*
X127600000Y-100575000D02*
X127600000Y-99734380D01*
X122240000Y-111210000D02*
X122200000Y-111250000D01*
X132100000Y-108900000D02*
X132100000Y-110600000D01*
X127860000Y-99490000D02*
X127860000Y-98400000D01*
X122400000Y-102050000D02*
X122400000Y-101150000D01*
X124846880Y-105487500D02*
X125687500Y-105487500D01*
D36*
X120700000Y-102430000D02*
X120700000Y-100800000D01*
D37*
X147600000Y-102050000D02*
X146350000Y-102050000D01*
X135750000Y-102710000D02*
X136610000Y-102710000D01*
X122400000Y-104080000D02*
X123004239Y-104080000D01*
X127834380Y-99500000D02*
X127850000Y-99500000D01*
X135110000Y-102710000D02*
X135750000Y-102710000D01*
D36*
X127850000Y-98000000D02*
X127860000Y-98010000D01*
D37*
X125687500Y-105487500D02*
X127387500Y-105487500D01*
X117350000Y-96500000D02*
X117300000Y-96450000D01*
X127600000Y-99734380D02*
X127834380Y-99500000D01*
D36*
X119000000Y-105700000D02*
X119600000Y-106300000D01*
X128200000Y-97650000D02*
X127850000Y-98000000D01*
D37*
X148400000Y-109700000D02*
X150650000Y-109700000D01*
D36*
X128200000Y-96900000D02*
X128200000Y-97650000D01*
D37*
X122240000Y-110350000D02*
X122240000Y-111210000D01*
X127730000Y-110650000D02*
X128360050Y-110650000D01*
X134012500Y-102487500D02*
X134887500Y-102487500D01*
X128360050Y-110650000D02*
X128605025Y-110405025D01*
X127600000Y-100575000D02*
X127600000Y-101900000D01*
X124659380Y-105300000D02*
X124846880Y-105487500D01*
X132100000Y-110600000D02*
X132150000Y-110650000D01*
D36*
X117300000Y-97200000D02*
X117300000Y-96450000D01*
D37*
X132100000Y-108900000D02*
X132100000Y-107600000D01*
X123850000Y-105300000D02*
X124659380Y-105300000D01*
X122220000Y-108060000D02*
X122200000Y-108040000D01*
X123004239Y-104080000D02*
X123285037Y-103799202D01*
X127387500Y-105487500D02*
X127600000Y-105700000D01*
X122220000Y-108940000D02*
X122220000Y-108060000D01*
D36*
X127860000Y-98010000D02*
X127860000Y-98400000D01*
X116850000Y-97400000D02*
X117100000Y-97400000D01*
X119000000Y-104630000D02*
X119000000Y-105700000D01*
D37*
%TO.N,+3.3VA*%
X124846880Y-105987500D02*
X125687500Y-105987500D01*
D36*
X123180000Y-108940000D02*
X124622500Y-108940000D01*
X123850000Y-107750000D02*
X123850000Y-106260000D01*
X123180000Y-108940000D02*
X123180000Y-108420000D01*
D37*
X124574380Y-106260000D02*
X124846880Y-105987500D01*
D36*
X124622500Y-108940000D02*
X124650000Y-108912500D01*
D37*
X123850000Y-106260000D02*
X124574380Y-106260000D01*
D36*
X123180000Y-108420000D02*
X123850000Y-107750000D01*
D37*
%TO.N,/NRST*%
X126050000Y-110400000D02*
X126050000Y-108550000D01*
X127937500Y-104987500D02*
X125687500Y-104987500D01*
X128300000Y-106300000D02*
X128300000Y-105350000D01*
X126300000Y-110650000D02*
X126050000Y-110400000D01*
X128300000Y-105350000D02*
X127937500Y-104987500D01*
X126050000Y-108550000D02*
X128300000Y-106300000D01*
X126770000Y-110650000D02*
X126300000Y-110650000D01*
%TO.N,/HSE_IN*%
X122400000Y-103010000D02*
X122040000Y-103010000D01*
X122040000Y-103010000D02*
X121550000Y-103500000D01*
X121550000Y-103500000D02*
X119850000Y-103500000D01*
X125687500Y-103987500D02*
X124587500Y-103987500D01*
X119850000Y-103500000D02*
X119000000Y-102650000D01*
X124587500Y-103987500D02*
X123610000Y-103010000D01*
X119000000Y-102650000D02*
X119000000Y-102430000D01*
X123610000Y-103010000D02*
X122400000Y-103010000D01*
%TO.N,/HSE_OUT*%
X122840000Y-105040000D02*
X122400000Y-105040000D01*
X122850000Y-105050000D02*
X122840000Y-105040000D01*
X125687500Y-104487500D02*
X123412500Y-104487500D01*
X122400000Y-105040000D02*
X121110000Y-105040000D01*
X123412500Y-104487500D02*
X122850000Y-105050000D01*
X121110000Y-105040000D02*
X120700000Y-104630000D01*
D36*
%TO.N,/PWR_LED_K*%
X147400000Y-111650000D02*
X147400000Y-109720000D01*
X147400000Y-109720000D02*
X147380000Y-109700000D01*
D38*
%TO.N,/USB_D+*%
X146524999Y-103450000D02*
X146624999Y-103350000D01*
X135118751Y-103487500D02*
X135143751Y-103512500D01*
X146624999Y-103350000D02*
X147600000Y-103350000D01*
X135143751Y-103512500D02*
X146200000Y-103512500D01*
X146262500Y-103450000D02*
X146524999Y-103450000D01*
X134012500Y-103487500D02*
X135118751Y-103487500D01*
X146200000Y-103512500D02*
X146262500Y-103450000D01*
%TO.N,/USB_D-*%
X146524999Y-103900000D02*
X146624999Y-104000000D01*
X135143751Y-103962500D02*
X146372206Y-103962500D01*
X146372206Y-103962500D02*
X146434706Y-103900000D01*
X146434706Y-103900000D02*
X146524999Y-103900000D01*
X134012500Y-103987500D02*
X135118751Y-103987500D01*
X135118751Y-103987500D02*
X135143751Y-103962500D01*
X146624999Y-104000000D02*
X147600000Y-104000000D01*
D37*
%TO.N,/SWDIO*%
X133171880Y-102987500D02*
X132900000Y-102715620D01*
X132900000Y-101700000D02*
X141260000Y-93340000D01*
X141260000Y-93340000D02*
X141260000Y-91750000D01*
X134012500Y-102987500D02*
X133171880Y-102987500D01*
X132900000Y-102715620D02*
X132900000Y-101700000D01*
%TO.N,/SWCLK*%
X138750000Y-93300000D02*
X132600000Y-99450000D01*
X132600000Y-99450000D02*
X132600000Y-100575000D01*
X138720000Y-91750000D02*
X138720000Y-93270000D01*
X138720000Y-93270000D02*
X138750000Y-93300000D01*
%TO.N,/USART1_RX*%
X130550000Y-95150000D02*
X130550000Y-98250000D01*
X129850000Y-94450000D02*
X130550000Y-95150000D01*
X125150000Y-94450000D02*
X129850000Y-94450000D01*
X130550000Y-98250000D02*
X129600000Y-99200000D01*
X129600000Y-99200000D02*
X129600000Y-100575000D01*
X124250000Y-93550000D02*
X125150000Y-94450000D01*
X124250000Y-91750000D02*
X124250000Y-93550000D01*
%TO.N,/USART1_TX*%
X126790000Y-93040000D02*
X126790000Y-91750000D01*
X132000000Y-97834380D02*
X132000000Y-94300000D01*
X132000000Y-94300000D02*
X131150000Y-93450000D01*
X130100000Y-100575000D02*
X130100000Y-99734380D01*
X127200000Y-93450000D02*
X126790000Y-93040000D01*
X130100000Y-99734380D02*
X132000000Y-97834380D01*
X131150000Y-93450000D02*
X127200000Y-93450000D01*
%TO.N,/I2C2_SCL*%
X126000000Y-115750000D02*
X126510000Y-116260000D01*
X130242893Y-110600000D02*
X129400000Y-110600000D01*
X126510000Y-116260000D02*
X126510000Y-117600000D01*
X129400000Y-110600000D02*
X126000000Y-114000000D01*
X126000000Y-114000000D02*
X126000000Y-115750000D01*
X131100000Y-109742893D02*
X130242893Y-110600000D01*
X131100000Y-108900000D02*
X131100000Y-109742893D01*
%TO.N,/I2C2_SDA*%
X129050000Y-115900000D02*
X129050000Y-117600000D01*
X129320000Y-113130000D02*
X131500000Y-110950000D01*
X131500000Y-110950000D02*
X131500000Y-110050000D01*
X129320000Y-114000000D02*
X129320000Y-113130000D01*
X129320000Y-115630000D02*
X129050000Y-115900000D01*
X129320000Y-114000000D02*
X129320000Y-115630000D01*
X131500000Y-110050000D02*
X131600000Y-109950000D01*
X131600000Y-109950000D02*
X131600000Y-108900000D01*
%TO.N,/SW_BOOT0*%
X116880000Y-100370000D02*
X116850000Y-100400000D01*
X119000000Y-100370000D02*
X116880000Y-100370000D01*
%TO.N,/BOOT0*%
X119000000Y-98100000D02*
X121800000Y-95300000D01*
X121800000Y-95300000D02*
X128450000Y-95300000D01*
X129100000Y-100575000D02*
X129100000Y-95950000D01*
X119000000Y-99350000D02*
X119000000Y-98100000D01*
X129100000Y-95950000D02*
X128450000Y-95300000D01*
%TD*%
%TA.AperFunction,Conductor*%
%TO.N,VBUS*%
G36*
X146462524Y-104371238D02*
G01*
X146462561Y-104371103D01*
X146464628Y-104371657D01*
X146468555Y-104372438D01*
X146470408Y-104373205D01*
X146470412Y-104373207D01*
X146572272Y-104400500D01*
X146649167Y-104400500D01*
X146716206Y-104420185D01*
X146736848Y-104436819D01*
X146777235Y-104477206D01*
X146880009Y-104522585D01*
X146905135Y-104525500D01*
X148294864Y-104525499D01*
X148294879Y-104525497D01*
X148294882Y-104525497D01*
X148319987Y-104522586D01*
X148319987Y-104522585D01*
X148319991Y-104522585D01*
X148325913Y-104519969D01*
X148395192Y-104510898D01*
X148458377Y-104540721D01*
X148495408Y-104599971D01*
X148500000Y-104633404D01*
X148500000Y-104808666D01*
X148480315Y-104875705D01*
X148475200Y-104883066D01*
X148387200Y-105000400D01*
X148331229Y-105042221D01*
X148288000Y-105050000D01*
X139849999Y-105050000D01*
X138650000Y-106249999D01*
X138650000Y-108048638D01*
X138630315Y-108115677D01*
X138613681Y-108136319D01*
X138386319Y-108363681D01*
X138324996Y-108397166D01*
X138298638Y-108400000D01*
X137949999Y-108400000D01*
X137600000Y-108749999D01*
X137600000Y-110748638D01*
X137580315Y-110815677D01*
X137563681Y-110836319D01*
X137286319Y-111113681D01*
X137224996Y-111147166D01*
X137198638Y-111150000D01*
X136151362Y-111150000D01*
X136084323Y-111130315D01*
X136063681Y-111113681D01*
X135736319Y-110786319D01*
X135702834Y-110724996D01*
X135700000Y-110698638D01*
X135700000Y-109001362D01*
X135719685Y-108934323D01*
X135736319Y-108913681D01*
X135900001Y-108749999D01*
X136350000Y-108300000D01*
X136350000Y-107101362D01*
X136369685Y-107034323D01*
X136386319Y-107013681D01*
X139000681Y-104399319D01*
X139062004Y-104365834D01*
X139088362Y-104363000D01*
X146421105Y-104363000D01*
X146462524Y-104371238D01*
G37*
%TD.AperFunction*%
%TD*%
%TA.AperFunction,Conductor*%
%TO.N,+3.3V*%
G36*
X139615677Y-108819685D02*
G01*
X139636319Y-108836319D01*
X139863681Y-109063681D01*
X139897166Y-109125004D01*
X139900000Y-109151362D01*
X139900000Y-113350000D01*
X140250000Y-113700000D01*
X143100000Y-113700000D01*
X143313681Y-113486319D01*
X143375004Y-113452834D01*
X143401362Y-113450000D01*
X144798638Y-113450000D01*
X144865677Y-113469685D01*
X144886319Y-113486319D01*
X145063681Y-113663681D01*
X145097166Y-113725004D01*
X145100000Y-113751362D01*
X145100000Y-117148638D01*
X145080315Y-117215677D01*
X145063681Y-117236319D01*
X144836319Y-117463681D01*
X144774996Y-117497166D01*
X144748638Y-117500000D01*
X137101362Y-117500000D01*
X137034323Y-117480315D01*
X137013681Y-117463681D01*
X136786319Y-117236319D01*
X136752834Y-117174996D01*
X136750000Y-117148638D01*
X136750000Y-112451362D01*
X136769685Y-112384323D01*
X136786319Y-112363681D01*
X138000000Y-111150000D01*
X138000000Y-109151362D01*
X138019685Y-109084323D01*
X138036319Y-109063681D01*
X138263681Y-108836319D01*
X138325004Y-108802834D01*
X138351362Y-108800000D01*
X139548638Y-108800000D01*
X139615677Y-108819685D01*
G37*
%TD.AperFunction*%
%TD*%
%TA.AperFunction,Conductor*%
%TO.N,GND*%
G36*
X141815677Y-106469685D02*
G01*
X141836319Y-106486319D01*
X142363681Y-107013681D01*
X142397166Y-107075004D01*
X142400000Y-107101362D01*
X142400000Y-110850000D01*
X143050000Y-111500000D01*
X145698638Y-111500000D01*
X145765677Y-111519685D01*
X145786319Y-111536319D01*
X145913681Y-111663681D01*
X145947166Y-111725004D01*
X145950000Y-111751362D01*
X145950000Y-112798638D01*
X145930315Y-112865677D01*
X145913681Y-112886319D01*
X145786319Y-113013681D01*
X145724996Y-113047166D01*
X145698638Y-113050000D01*
X140701362Y-113050000D01*
X140634323Y-113030315D01*
X140613681Y-113013681D01*
X140241819Y-112641819D01*
X140208334Y-112580496D01*
X140205500Y-112554138D01*
X140205500Y-109151361D01*
X140205390Y-109149320D01*
X140203749Y-109118703D01*
X140200915Y-109092345D01*
X140200870Y-109091971D01*
X140200864Y-109091875D01*
X140200839Y-109091635D01*
X140200850Y-109091633D01*
X140200000Y-109077304D01*
X140200000Y-108800000D01*
X139850000Y-108450000D01*
X139301362Y-108450000D01*
X139234323Y-108430315D01*
X139213681Y-108413681D01*
X139036319Y-108236319D01*
X139002834Y-108174996D01*
X139000000Y-108148638D01*
X139000000Y-106851362D01*
X139019685Y-106784323D01*
X139036319Y-106763681D01*
X139313681Y-106486319D01*
X139375004Y-106452834D01*
X139401362Y-106450000D01*
X141748638Y-106450000D01*
X141815677Y-106469685D01*
G37*
%TD.AperFunction*%
%TD*%
M02*
