%TF.GenerationSoftware,KiCad,Pcbnew,8.0.4*%
%TF.CreationDate,2024-08-10T16:36:54+03:00*%
%TF.ProjectId,KiCad_Course,4b694361-645f-4436-9f75-7273652e6b69,rev?*%
%TF.SameCoordinates,Original*%
%TF.FileFunction,Soldermask,Top*%
%TF.FilePolarity,Negative*%
%FSLAX46Y46*%
G04 Gerber Fmt 4.6, Leading zero omitted, Abs format (unit mm)*
G04 Created by KiCad (PCBNEW 8.0.4) date 2024-08-10 16:36:54*
%MOMM*%
%LPD*%
G01*
G04 APERTURE LIST*
G04 Aperture macros list*
%AMRoundRect*
0 Rectangle with rounded corners*
0 $1 Rounding radius*
0 $2 $3 $4 $5 $6 $7 $8 $9 X,Y pos of 4 corners*
0 Add a 4 corners polygon primitive as box body*
4,1,4,$2,$3,$4,$5,$6,$7,$8,$9,$2,$3,0*
0 Add four circle primitives for the rounded corners*
1,1,$1+$1,$2,$3*
1,1,$1+$1,$4,$5*
1,1,$1+$1,$6,$7*
1,1,$1+$1,$8,$9*
0 Add four rect primitives between the rounded corners*
20,1,$1+$1,$2,$3,$4,$5,0*
20,1,$1+$1,$4,$5,$6,$7,0*
20,1,$1+$1,$6,$7,$8,$9,0*
20,1,$1+$1,$8,$9,$2,$3,0*%
G04 Aperture macros list end*
%ADD10R,1.200000X1.400000*%
%ADD11RoundRect,0.140000X0.140000X0.170000X-0.140000X0.170000X-0.140000X-0.170000X0.140000X-0.170000X0*%
%ADD12RoundRect,0.075000X-0.662500X-0.075000X0.662500X-0.075000X0.662500X0.075000X-0.662500X0.075000X0*%
%ADD13RoundRect,0.075000X-0.075000X-0.662500X0.075000X-0.662500X0.075000X0.662500X-0.075000X0.662500X0*%
%ADD14RoundRect,0.225000X-0.225000X-0.250000X0.225000X-0.250000X0.225000X0.250000X-0.225000X0.250000X0*%
%ADD15RoundRect,0.135000X0.135000X0.185000X-0.135000X0.185000X-0.135000X-0.185000X0.135000X-0.185000X0*%
%ADD16RoundRect,0.140000X-0.140000X-0.170000X0.140000X-0.170000X0.140000X0.170000X-0.140000X0.170000X0*%
%ADD17RoundRect,0.140000X0.170000X-0.140000X0.170000X0.140000X-0.170000X0.140000X-0.170000X-0.140000X0*%
%ADD18RoundRect,0.250000X-0.250000X-0.475000X0.250000X-0.475000X0.250000X0.475000X-0.250000X0.475000X0*%
%ADD19R,0.800000X1.000000*%
%ADD20C,0.900000*%
%ADD21R,1.500000X0.700000*%
%ADD22R,1.700000X1.700000*%
%ADD23O,1.700000X1.700000*%
%ADD24RoundRect,0.135000X-0.135000X-0.185000X0.135000X-0.185000X0.135000X0.185000X-0.135000X0.185000X0*%
%ADD25C,2.200000*%
%ADD26RoundRect,0.135000X0.185000X-0.135000X0.185000X0.135000X-0.185000X0.135000X-0.185000X-0.135000X0*%
%ADD27RoundRect,0.218750X-0.256250X0.218750X-0.256250X-0.218750X0.256250X-0.218750X0.256250X0.218750X0*%
%ADD28RoundRect,0.140000X-0.170000X0.140000X-0.170000X-0.140000X0.170000X-0.140000X0.170000X0.140000X0*%
%ADD29RoundRect,0.135000X-0.185000X0.135000X-0.185000X-0.135000X0.185000X-0.135000X0.185000X0.135000X0*%
%ADD30RoundRect,0.250000X0.475000X-0.250000X0.475000X0.250000X-0.475000X0.250000X-0.475000X-0.250000X0*%
%ADD31O,0.800000X0.800000*%
%ADD32R,1.300000X0.450000*%
%ADD33O,1.800000X1.150000*%
%ADD34O,2.000000X1.450000*%
%ADD35RoundRect,0.375000X-0.375000X0.625000X-0.375000X-0.625000X0.375000X-0.625000X0.375000X0.625000X0*%
%ADD36RoundRect,0.500000X-1.400000X0.500000X-1.400000X-0.500000X1.400000X-0.500000X1.400000X0.500000X0*%
G04 APERTURE END LIST*
D10*
%TO.C,Y1*%
X119000000Y-102430000D03*
X119000000Y-104630000D03*
X120700000Y-104630000D03*
X120700000Y-102430000D03*
%TD*%
D11*
%TO.C,C7*%
X123180000Y-108940000D03*
X122220000Y-108940000D03*
%TD*%
D12*
%TO.C,U2*%
X125687500Y-101987500D03*
X125687500Y-102487500D03*
X125687500Y-102987500D03*
X125687500Y-103487500D03*
X125687500Y-103987500D03*
X125687500Y-104487500D03*
X125687500Y-104987500D03*
X125687500Y-105487500D03*
X125687500Y-105987500D03*
X125687500Y-106487500D03*
X125687500Y-106987500D03*
X125687500Y-107487500D03*
D13*
X127100000Y-108900000D03*
X127600000Y-108900000D03*
X128100000Y-108900000D03*
X128600000Y-108900000D03*
X129100000Y-108900000D03*
X129600000Y-108900000D03*
X130100000Y-108900000D03*
X130600000Y-108900000D03*
X131100000Y-108900000D03*
X131600000Y-108900000D03*
X132100000Y-108900000D03*
X132600000Y-108900000D03*
D12*
X134012500Y-107487500D03*
X134012500Y-106987500D03*
X134012500Y-106487500D03*
X134012500Y-105987500D03*
X134012500Y-105487500D03*
X134012500Y-104987500D03*
X134012500Y-104487500D03*
X134012500Y-103987500D03*
X134012500Y-103487500D03*
X134012500Y-102987500D03*
X134012500Y-102487500D03*
X134012500Y-101987500D03*
D13*
X132600000Y-100575000D03*
X132100000Y-100575000D03*
X131600000Y-100575000D03*
X131100000Y-100575000D03*
X130600000Y-100575000D03*
X130100000Y-100575000D03*
X129600000Y-100575000D03*
X129100000Y-100575000D03*
X128600000Y-100575000D03*
X128100000Y-100575000D03*
X127600000Y-100575000D03*
X127100000Y-100575000D03*
%TD*%
D14*
%TO.C,C1*%
X126650000Y-96900000D03*
X128200000Y-96900000D03*
%TD*%
D11*
%TO.C,C8*%
X123200000Y-110350000D03*
X122240000Y-110350000D03*
%TD*%
D15*
%TO.C,R1*%
X148400000Y-109700000D03*
X147380000Y-109700000D03*
%TD*%
D16*
%TO.C,C5*%
X126900000Y-98400000D03*
X127860000Y-98400000D03*
%TD*%
D17*
%TO.C,C2*%
X123900000Y-101980000D03*
X123900000Y-101020000D03*
%TD*%
D18*
%TO.C,C9*%
X137950000Y-107450000D03*
X139850000Y-107450000D03*
%TD*%
D19*
%TO.C,SW1*%
X116200000Y-96000000D03*
X113990000Y-96000000D03*
D20*
X115090000Y-98150000D03*
X115090000Y-101150000D03*
D19*
X116200000Y-103300000D03*
X113990000Y-103300000D03*
D21*
X116850000Y-97400000D03*
X116850000Y-100400000D03*
X116850000Y-101900000D03*
%TD*%
D22*
%TO.C,J2*%
X143800000Y-91750000D03*
D23*
X141260000Y-91750000D03*
X138720000Y-91750000D03*
X136180000Y-91750000D03*
%TD*%
D15*
%TO.C,R5*%
X129320000Y-114000000D03*
X128300000Y-114000000D03*
%TD*%
D24*
%TO.C,R4*%
X126000000Y-114000000D03*
X127020000Y-114000000D03*
%TD*%
D25*
%TO.C,H1*%
X115850000Y-117250000D03*
%TD*%
%TO.C,H3*%
X150850000Y-92250000D03*
%TD*%
D26*
%TO.C,R2*%
X119000000Y-100370000D03*
X119000000Y-99350000D03*
%TD*%
D27*
%TO.C,D1*%
X147400000Y-111650000D03*
X147400000Y-113225000D03*
%TD*%
D25*
%TO.C,H4*%
X115850000Y-92250000D03*
%TD*%
D27*
%TO.C,FB1*%
X124650000Y-108912500D03*
X124650000Y-110487500D03*
%TD*%
D28*
%TO.C,C4*%
X135750000Y-101750000D03*
X135750000Y-102710000D03*
%TD*%
D29*
%TO.C,R3*%
X139250000Y-102330000D03*
X139250000Y-103350000D03*
%TD*%
D17*
%TO.C,C6*%
X123850000Y-106260000D03*
X123850000Y-105300000D03*
%TD*%
D25*
%TO.C,H2*%
X150850000Y-117250000D03*
%TD*%
D17*
%TO.C,C12*%
X122400000Y-103010000D03*
X122400000Y-102050000D03*
%TD*%
D16*
%TO.C,C11*%
X126770000Y-110650000D03*
X127730000Y-110650000D03*
%TD*%
D22*
%TO.C,J4*%
X123970000Y-117600000D03*
D23*
X126510000Y-117600000D03*
X129050000Y-117600000D03*
X131590000Y-117600000D03*
%TD*%
D30*
%TO.C,C10*%
X144100000Y-114150000D03*
X144100000Y-112250000D03*
%TD*%
D31*
%TO.C,J1*%
X148700000Y-105850000D03*
X148700000Y-100850000D03*
D32*
X147600000Y-104650000D03*
X147600000Y-104000000D03*
X147600000Y-103350000D03*
X147600000Y-102700000D03*
X147600000Y-102050000D03*
D33*
X151450000Y-107225000D03*
D34*
X147650000Y-107075000D03*
X147650000Y-99625000D03*
D33*
X151450000Y-99475000D03*
%TD*%
D11*
%TO.C,C3*%
X133110000Y-110650000D03*
X132150000Y-110650000D03*
%TD*%
D17*
%TO.C,C13*%
X122400000Y-105040000D03*
X122400000Y-104080000D03*
%TD*%
D35*
%TO.C,U1*%
X141250000Y-109950000D03*
X138950000Y-109950000D03*
D36*
X138950000Y-116250000D03*
D35*
X136650000Y-109950000D03*
%TD*%
D22*
%TO.C,J3*%
X129330000Y-91750000D03*
D23*
X126790000Y-91750000D03*
X124250000Y-91750000D03*
X121710000Y-91750000D03*
%TD*%
M02*
