%TF.GenerationSoftware,KiCad,Pcbnew,8.0.4*%
%TF.CreationDate,2024-08-10T16:36:54+03:00*%
%TF.ProjectId,KiCad_Course,4b694361-645f-4436-9f75-7273652e6b69,rev?*%
%TF.SameCoordinates,Original*%
%TF.FileFunction,Legend,Top*%
%TF.FilePolarity,Positive*%
%FSLAX46Y46*%
G04 Gerber Fmt 4.6, Leading zero omitted, Abs format (unit mm)*
G04 Created by KiCad (PCBNEW 8.0.4) date 2024-08-10 16:36:54*
%MOMM*%
%LPD*%
G01*
G04 APERTURE LIST*
%ADD10C,0.150000*%
%ADD11C,0.200000*%
%ADD12C,0.120000*%
G04 APERTURE END LIST*
D10*
X118000000Y-96400000D02*
X118350000Y-96800000D01*
X118350000Y-96800000D02*
X118000000Y-96400000D01*
X118350000Y-96800000D02*
X118350000Y-95650000D01*
X118350000Y-96800000D02*
X118700000Y-96400000D01*
D11*
X118629197Y-91860433D02*
X119581578Y-91860433D01*
D10*
X118760588Y-98119819D02*
X118189160Y-98119819D01*
X118474874Y-98119819D02*
X118474874Y-97119819D01*
X118474874Y-97119819D02*
X118379636Y-97262676D01*
X118379636Y-97262676D02*
X118284398Y-97357914D01*
X118284398Y-97357914D02*
X118189160Y-97405533D01*
D11*
X138369673Y-95077100D02*
X138548244Y-95136623D01*
X138548244Y-95136623D02*
X138845863Y-95136623D01*
X138845863Y-95136623D02*
X138964911Y-95077100D01*
X138964911Y-95077100D02*
X139024435Y-95017576D01*
X139024435Y-95017576D02*
X139083958Y-94898528D01*
X139083958Y-94898528D02*
X139083958Y-94779480D01*
X139083958Y-94779480D02*
X139024435Y-94660433D01*
X139024435Y-94660433D02*
X138964911Y-94600909D01*
X138964911Y-94600909D02*
X138845863Y-94541385D01*
X138845863Y-94541385D02*
X138607768Y-94481861D01*
X138607768Y-94481861D02*
X138488720Y-94422338D01*
X138488720Y-94422338D02*
X138429197Y-94362814D01*
X138429197Y-94362814D02*
X138369673Y-94243766D01*
X138369673Y-94243766D02*
X138369673Y-94124719D01*
X138369673Y-94124719D02*
X138429197Y-94005671D01*
X138429197Y-94005671D02*
X138488720Y-93946147D01*
X138488720Y-93946147D02*
X138607768Y-93886623D01*
X138607768Y-93886623D02*
X138905387Y-93886623D01*
X138905387Y-93886623D02*
X139083958Y-93946147D01*
X139500625Y-93886623D02*
X139798244Y-95136623D01*
X139798244Y-95136623D02*
X140036339Y-94243766D01*
X140036339Y-94243766D02*
X140274434Y-95136623D01*
X140274434Y-95136623D02*
X140572054Y-93886623D01*
X141048244Y-95136623D02*
X141048244Y-93886623D01*
X141048244Y-93886623D02*
X141345863Y-93886623D01*
X141345863Y-93886623D02*
X141524434Y-93946147D01*
X141524434Y-93946147D02*
X141643482Y-94065195D01*
X141643482Y-94065195D02*
X141703005Y-94184242D01*
X141703005Y-94184242D02*
X141762529Y-94422338D01*
X141762529Y-94422338D02*
X141762529Y-94600909D01*
X141762529Y-94600909D02*
X141703005Y-94839004D01*
X141703005Y-94839004D02*
X141643482Y-94958052D01*
X141643482Y-94958052D02*
X141524434Y-95077100D01*
X141524434Y-95077100D02*
X141345863Y-95136623D01*
X141345863Y-95136623D02*
X141048244Y-95136623D01*
X133179197Y-117660433D02*
X134131578Y-117660433D01*
X123029197Y-93736623D02*
X123029197Y-94748528D01*
X123029197Y-94748528D02*
X123088720Y-94867576D01*
X123088720Y-94867576D02*
X123148244Y-94927100D01*
X123148244Y-94927100D02*
X123267292Y-94986623D01*
X123267292Y-94986623D02*
X123505387Y-94986623D01*
X123505387Y-94986623D02*
X123624435Y-94927100D01*
X123624435Y-94927100D02*
X123683958Y-94867576D01*
X123683958Y-94867576D02*
X123743482Y-94748528D01*
X123743482Y-94748528D02*
X123743482Y-93736623D01*
X124279197Y-94629480D02*
X124874435Y-94629480D01*
X124160149Y-94986623D02*
X124576816Y-93736623D01*
X124576816Y-93736623D02*
X124993482Y-94986623D01*
X126124435Y-94986623D02*
X125707769Y-94391385D01*
X125410150Y-94986623D02*
X125410150Y-93736623D01*
X125410150Y-93736623D02*
X125886340Y-93736623D01*
X125886340Y-93736623D02*
X126005388Y-93796147D01*
X126005388Y-93796147D02*
X126064911Y-93855671D01*
X126064911Y-93855671D02*
X126124435Y-93974719D01*
X126124435Y-93974719D02*
X126124435Y-94153290D01*
X126124435Y-94153290D02*
X126064911Y-94272338D01*
X126064911Y-94272338D02*
X126005388Y-94331861D01*
X126005388Y-94331861D02*
X125886340Y-94391385D01*
X125886340Y-94391385D02*
X125410150Y-94391385D01*
X126481578Y-93736623D02*
X127195864Y-93736623D01*
X126838721Y-94986623D02*
X126838721Y-93736623D01*
X150019673Y-96917219D02*
X150019673Y-97726742D01*
X150019673Y-97726742D02*
X150067292Y-97821980D01*
X150067292Y-97821980D02*
X150114911Y-97869600D01*
X150114911Y-97869600D02*
X150210149Y-97917219D01*
X150210149Y-97917219D02*
X150400625Y-97917219D01*
X150400625Y-97917219D02*
X150495863Y-97869600D01*
X150495863Y-97869600D02*
X150543482Y-97821980D01*
X150543482Y-97821980D02*
X150591101Y-97726742D01*
X150591101Y-97726742D02*
X150591101Y-96917219D01*
X151019673Y-97869600D02*
X151162530Y-97917219D01*
X151162530Y-97917219D02*
X151400625Y-97917219D01*
X151400625Y-97917219D02*
X151495863Y-97869600D01*
X151495863Y-97869600D02*
X151543482Y-97821980D01*
X151543482Y-97821980D02*
X151591101Y-97726742D01*
X151591101Y-97726742D02*
X151591101Y-97631504D01*
X151591101Y-97631504D02*
X151543482Y-97536266D01*
X151543482Y-97536266D02*
X151495863Y-97488647D01*
X151495863Y-97488647D02*
X151400625Y-97441028D01*
X151400625Y-97441028D02*
X151210149Y-97393409D01*
X151210149Y-97393409D02*
X151114911Y-97345790D01*
X151114911Y-97345790D02*
X151067292Y-97298171D01*
X151067292Y-97298171D02*
X151019673Y-97202933D01*
X151019673Y-97202933D02*
X151019673Y-97107695D01*
X151019673Y-97107695D02*
X151067292Y-97012457D01*
X151067292Y-97012457D02*
X151114911Y-96964838D01*
X151114911Y-96964838D02*
X151210149Y-96917219D01*
X151210149Y-96917219D02*
X151448244Y-96917219D01*
X151448244Y-96917219D02*
X151591101Y-96964838D01*
X152353006Y-97393409D02*
X152495863Y-97441028D01*
X152495863Y-97441028D02*
X152543482Y-97488647D01*
X152543482Y-97488647D02*
X152591101Y-97583885D01*
X152591101Y-97583885D02*
X152591101Y-97726742D01*
X152591101Y-97726742D02*
X152543482Y-97821980D01*
X152543482Y-97821980D02*
X152495863Y-97869600D01*
X152495863Y-97869600D02*
X152400625Y-97917219D01*
X152400625Y-97917219D02*
X152019673Y-97917219D01*
X152019673Y-97917219D02*
X152019673Y-96917219D01*
X152019673Y-96917219D02*
X152353006Y-96917219D01*
X152353006Y-96917219D02*
X152448244Y-96964838D01*
X152448244Y-96964838D02*
X152495863Y-97012457D01*
X152495863Y-97012457D02*
X152543482Y-97107695D01*
X152543482Y-97107695D02*
X152543482Y-97202933D01*
X152543482Y-97202933D02*
X152495863Y-97298171D01*
X152495863Y-97298171D02*
X152448244Y-97345790D01*
X152448244Y-97345790D02*
X152353006Y-97393409D01*
X152353006Y-97393409D02*
X152019673Y-97393409D01*
X119719673Y-118167219D02*
X119719673Y-117167219D01*
X120148244Y-117262457D02*
X120195863Y-117214838D01*
X120195863Y-117214838D02*
X120291101Y-117167219D01*
X120291101Y-117167219D02*
X120529196Y-117167219D01*
X120529196Y-117167219D02*
X120624434Y-117214838D01*
X120624434Y-117214838D02*
X120672053Y-117262457D01*
X120672053Y-117262457D02*
X120719672Y-117357695D01*
X120719672Y-117357695D02*
X120719672Y-117452933D01*
X120719672Y-117452933D02*
X120672053Y-117595790D01*
X120672053Y-117595790D02*
X120100625Y-118167219D01*
X120100625Y-118167219D02*
X120719672Y-118167219D01*
X121719672Y-118071980D02*
X121672053Y-118119600D01*
X121672053Y-118119600D02*
X121529196Y-118167219D01*
X121529196Y-118167219D02*
X121433958Y-118167219D01*
X121433958Y-118167219D02*
X121291101Y-118119600D01*
X121291101Y-118119600D02*
X121195863Y-118024361D01*
X121195863Y-118024361D02*
X121148244Y-117929123D01*
X121148244Y-117929123D02*
X121100625Y-117738647D01*
X121100625Y-117738647D02*
X121100625Y-117595790D01*
X121100625Y-117595790D02*
X121148244Y-117405314D01*
X121148244Y-117405314D02*
X121195863Y-117310076D01*
X121195863Y-117310076D02*
X121291101Y-117214838D01*
X121291101Y-117214838D02*
X121433958Y-117167219D01*
X121433958Y-117167219D02*
X121529196Y-117167219D01*
X121529196Y-117167219D02*
X121672053Y-117214838D01*
X121672053Y-117214838D02*
X121719672Y-117262457D01*
X132979197Y-91910433D02*
X133931578Y-91910433D01*
D10*
X137780826Y-97469819D02*
X137905826Y-96469819D01*
X138352255Y-97469819D02*
X137995112Y-96898390D01*
X138477255Y-96469819D02*
X137834398Y-97041247D01*
X138780826Y-97469819D02*
X138864160Y-96803152D01*
X138905826Y-96469819D02*
X138852255Y-96517438D01*
X138852255Y-96517438D02*
X138893922Y-96565057D01*
X138893922Y-96565057D02*
X138947493Y-96517438D01*
X138947493Y-96517438D02*
X138905826Y-96469819D01*
X138905826Y-96469819D02*
X138893922Y-96565057D01*
X139840350Y-97374580D02*
X139786778Y-97422200D01*
X139786778Y-97422200D02*
X139637969Y-97469819D01*
X139637969Y-97469819D02*
X139542731Y-97469819D01*
X139542731Y-97469819D02*
X139405826Y-97422200D01*
X139405826Y-97422200D02*
X139322493Y-97326961D01*
X139322493Y-97326961D02*
X139286778Y-97231723D01*
X139286778Y-97231723D02*
X139262969Y-97041247D01*
X139262969Y-97041247D02*
X139280826Y-96898390D01*
X139280826Y-96898390D02*
X139352254Y-96707914D01*
X139352254Y-96707914D02*
X139411778Y-96612676D01*
X139411778Y-96612676D02*
X139518921Y-96517438D01*
X139518921Y-96517438D02*
X139667731Y-96469819D01*
X139667731Y-96469819D02*
X139762969Y-96469819D01*
X139762969Y-96469819D02*
X139899874Y-96517438D01*
X139899874Y-96517438D02*
X139941540Y-96565057D01*
X140685588Y-97469819D02*
X140751064Y-96946009D01*
X140751064Y-96946009D02*
X140715350Y-96850771D01*
X140715350Y-96850771D02*
X140626064Y-96803152D01*
X140626064Y-96803152D02*
X140435588Y-96803152D01*
X140435588Y-96803152D02*
X140334397Y-96850771D01*
X140691540Y-97422200D02*
X140590350Y-97469819D01*
X140590350Y-97469819D02*
X140352254Y-97469819D01*
X140352254Y-97469819D02*
X140262969Y-97422200D01*
X140262969Y-97422200D02*
X140227254Y-97326961D01*
X140227254Y-97326961D02*
X140239159Y-97231723D01*
X140239159Y-97231723D02*
X140298683Y-97136485D01*
X140298683Y-97136485D02*
X140399874Y-97088866D01*
X140399874Y-97088866D02*
X140637969Y-97088866D01*
X140637969Y-97088866D02*
X140739159Y-97041247D01*
X141590350Y-97469819D02*
X141715350Y-96469819D01*
X141596302Y-97422200D02*
X141495112Y-97469819D01*
X141495112Y-97469819D02*
X141304636Y-97469819D01*
X141304636Y-97469819D02*
X141215350Y-97422200D01*
X141215350Y-97422200D02*
X141173683Y-97374580D01*
X141173683Y-97374580D02*
X141137969Y-97279342D01*
X141137969Y-97279342D02*
X141173683Y-96993628D01*
X141173683Y-96993628D02*
X141233207Y-96898390D01*
X141233207Y-96898390D02*
X141286778Y-96850771D01*
X141286778Y-96850771D02*
X141387969Y-96803152D01*
X141387969Y-96803152D02*
X141578445Y-96803152D01*
X141578445Y-96803152D02*
X141667731Y-96850771D01*
X143411779Y-97374580D02*
X143358207Y-97422200D01*
X143358207Y-97422200D02*
X143209398Y-97469819D01*
X143209398Y-97469819D02*
X143114160Y-97469819D01*
X143114160Y-97469819D02*
X142977255Y-97422200D01*
X142977255Y-97422200D02*
X142893922Y-97326961D01*
X142893922Y-97326961D02*
X142858207Y-97231723D01*
X142858207Y-97231723D02*
X142834398Y-97041247D01*
X142834398Y-97041247D02*
X142852255Y-96898390D01*
X142852255Y-96898390D02*
X142923683Y-96707914D01*
X142923683Y-96707914D02*
X142983207Y-96612676D01*
X142983207Y-96612676D02*
X143090350Y-96517438D01*
X143090350Y-96517438D02*
X143239160Y-96469819D01*
X143239160Y-96469819D02*
X143334398Y-96469819D01*
X143334398Y-96469819D02*
X143471303Y-96517438D01*
X143471303Y-96517438D02*
X143512969Y-96565057D01*
X143971303Y-97469819D02*
X143882017Y-97422200D01*
X143882017Y-97422200D02*
X143840350Y-97374580D01*
X143840350Y-97374580D02*
X143804636Y-97279342D01*
X143804636Y-97279342D02*
X143840350Y-96993628D01*
X143840350Y-96993628D02*
X143899874Y-96898390D01*
X143899874Y-96898390D02*
X143953445Y-96850771D01*
X143953445Y-96850771D02*
X144054636Y-96803152D01*
X144054636Y-96803152D02*
X144197493Y-96803152D01*
X144197493Y-96803152D02*
X144286779Y-96850771D01*
X144286779Y-96850771D02*
X144328445Y-96898390D01*
X144328445Y-96898390D02*
X144364160Y-96993628D01*
X144364160Y-96993628D02*
X144328445Y-97279342D01*
X144328445Y-97279342D02*
X144268922Y-97374580D01*
X144268922Y-97374580D02*
X144215350Y-97422200D01*
X144215350Y-97422200D02*
X144114160Y-97469819D01*
X144114160Y-97469819D02*
X143971303Y-97469819D01*
X145245112Y-96803152D02*
X145161779Y-97469819D01*
X144816541Y-96803152D02*
X144751065Y-97326961D01*
X144751065Y-97326961D02*
X144786779Y-97422200D01*
X144786779Y-97422200D02*
X144876065Y-97469819D01*
X144876065Y-97469819D02*
X145018922Y-97469819D01*
X145018922Y-97469819D02*
X145120112Y-97422200D01*
X145120112Y-97422200D02*
X145173684Y-97374580D01*
X145637969Y-97469819D02*
X145721303Y-96803152D01*
X145697493Y-96993628D02*
X145757017Y-96898390D01*
X145757017Y-96898390D02*
X145810588Y-96850771D01*
X145810588Y-96850771D02*
X145911779Y-96803152D01*
X145911779Y-96803152D02*
X146007017Y-96803152D01*
X146215351Y-97422200D02*
X146304636Y-97469819D01*
X146304636Y-97469819D02*
X146495113Y-97469819D01*
X146495113Y-97469819D02*
X146596303Y-97422200D01*
X146596303Y-97422200D02*
X146655827Y-97326961D01*
X146655827Y-97326961D02*
X146661779Y-97279342D01*
X146661779Y-97279342D02*
X146626065Y-97184104D01*
X146626065Y-97184104D02*
X146536779Y-97136485D01*
X146536779Y-97136485D02*
X146393922Y-97136485D01*
X146393922Y-97136485D02*
X146304636Y-97088866D01*
X146304636Y-97088866D02*
X146268922Y-96993628D01*
X146268922Y-96993628D02*
X146274875Y-96946009D01*
X146274875Y-96946009D02*
X146334398Y-96850771D01*
X146334398Y-96850771D02*
X146435589Y-96803152D01*
X146435589Y-96803152D02*
X146578446Y-96803152D01*
X146578446Y-96803152D02*
X146667732Y-96850771D01*
X147453446Y-97422200D02*
X147352256Y-97469819D01*
X147352256Y-97469819D02*
X147161779Y-97469819D01*
X147161779Y-97469819D02*
X147072494Y-97422200D01*
X147072494Y-97422200D02*
X147036779Y-97326961D01*
X147036779Y-97326961D02*
X147084399Y-96946009D01*
X147084399Y-96946009D02*
X147143922Y-96850771D01*
X147143922Y-96850771D02*
X147245113Y-96803152D01*
X147245113Y-96803152D02*
X147435589Y-96803152D01*
X147435589Y-96803152D02*
X147524875Y-96850771D01*
X147524875Y-96850771D02*
X147560589Y-96946009D01*
X147560589Y-96946009D02*
X147548684Y-97041247D01*
X147548684Y-97041247D02*
X147060589Y-97136485D01*
D11*
X113703006Y-105143409D02*
X113845863Y-105191028D01*
X113845863Y-105191028D02*
X113893482Y-105238647D01*
X113893482Y-105238647D02*
X113941101Y-105333885D01*
X113941101Y-105333885D02*
X113941101Y-105476742D01*
X113941101Y-105476742D02*
X113893482Y-105571980D01*
X113893482Y-105571980D02*
X113845863Y-105619600D01*
X113845863Y-105619600D02*
X113750625Y-105667219D01*
X113750625Y-105667219D02*
X113369673Y-105667219D01*
X113369673Y-105667219D02*
X113369673Y-104667219D01*
X113369673Y-104667219D02*
X113703006Y-104667219D01*
X113703006Y-104667219D02*
X113798244Y-104714838D01*
X113798244Y-104714838D02*
X113845863Y-104762457D01*
X113845863Y-104762457D02*
X113893482Y-104857695D01*
X113893482Y-104857695D02*
X113893482Y-104952933D01*
X113893482Y-104952933D02*
X113845863Y-105048171D01*
X113845863Y-105048171D02*
X113798244Y-105095790D01*
X113798244Y-105095790D02*
X113703006Y-105143409D01*
X113703006Y-105143409D02*
X113369673Y-105143409D01*
X114560149Y-104667219D02*
X114750625Y-104667219D01*
X114750625Y-104667219D02*
X114845863Y-104714838D01*
X114845863Y-104714838D02*
X114941101Y-104810076D01*
X114941101Y-104810076D02*
X114988720Y-105000552D01*
X114988720Y-105000552D02*
X114988720Y-105333885D01*
X114988720Y-105333885D02*
X114941101Y-105524361D01*
X114941101Y-105524361D02*
X114845863Y-105619600D01*
X114845863Y-105619600D02*
X114750625Y-105667219D01*
X114750625Y-105667219D02*
X114560149Y-105667219D01*
X114560149Y-105667219D02*
X114464911Y-105619600D01*
X114464911Y-105619600D02*
X114369673Y-105524361D01*
X114369673Y-105524361D02*
X114322054Y-105333885D01*
X114322054Y-105333885D02*
X114322054Y-105000552D01*
X114322054Y-105000552D02*
X114369673Y-104810076D01*
X114369673Y-104810076D02*
X114464911Y-104714838D01*
X114464911Y-104714838D02*
X114560149Y-104667219D01*
X115607768Y-104667219D02*
X115798244Y-104667219D01*
X115798244Y-104667219D02*
X115893482Y-104714838D01*
X115893482Y-104714838D02*
X115988720Y-104810076D01*
X115988720Y-104810076D02*
X116036339Y-105000552D01*
X116036339Y-105000552D02*
X116036339Y-105333885D01*
X116036339Y-105333885D02*
X115988720Y-105524361D01*
X115988720Y-105524361D02*
X115893482Y-105619600D01*
X115893482Y-105619600D02*
X115798244Y-105667219D01*
X115798244Y-105667219D02*
X115607768Y-105667219D01*
X115607768Y-105667219D02*
X115512530Y-105619600D01*
X115512530Y-105619600D02*
X115417292Y-105524361D01*
X115417292Y-105524361D02*
X115369673Y-105333885D01*
X115369673Y-105333885D02*
X115369673Y-105000552D01*
X115369673Y-105000552D02*
X115417292Y-104810076D01*
X115417292Y-104810076D02*
X115512530Y-104714838D01*
X115512530Y-104714838D02*
X115607768Y-104667219D01*
X116322054Y-104667219D02*
X116893482Y-104667219D01*
X116607768Y-105667219D02*
X116607768Y-104667219D01*
X149610149Y-111967219D02*
X149800625Y-111967219D01*
X149800625Y-111967219D02*
X149895863Y-112014838D01*
X149895863Y-112014838D02*
X149991101Y-112110076D01*
X149991101Y-112110076D02*
X150038720Y-112300552D01*
X150038720Y-112300552D02*
X150038720Y-112633885D01*
X150038720Y-112633885D02*
X149991101Y-112824361D01*
X149991101Y-112824361D02*
X149895863Y-112919600D01*
X149895863Y-112919600D02*
X149800625Y-112967219D01*
X149800625Y-112967219D02*
X149610149Y-112967219D01*
X149610149Y-112967219D02*
X149514911Y-112919600D01*
X149514911Y-112919600D02*
X149419673Y-112824361D01*
X149419673Y-112824361D02*
X149372054Y-112633885D01*
X149372054Y-112633885D02*
X149372054Y-112300552D01*
X149372054Y-112300552D02*
X149419673Y-112110076D01*
X149419673Y-112110076D02*
X149514911Y-112014838D01*
X149514911Y-112014838D02*
X149610149Y-111967219D01*
X150467292Y-112967219D02*
X150467292Y-111967219D01*
X150467292Y-111967219D02*
X151038720Y-112967219D01*
X151038720Y-112967219D02*
X151038720Y-111967219D01*
D10*
X117973809Y-106728628D02*
X117973809Y-107204819D01*
X117640476Y-106204819D02*
X117973809Y-106728628D01*
X117973809Y-106728628D02*
X118307142Y-106204819D01*
X119164285Y-107204819D02*
X118592857Y-107204819D01*
X118878571Y-107204819D02*
X118878571Y-106204819D01*
X118878571Y-106204819D02*
X118783333Y-106347676D01*
X118783333Y-106347676D02*
X118688095Y-106442914D01*
X118688095Y-106442914D02*
X118592857Y-106490533D01*
X120453333Y-109299580D02*
X120405714Y-109347200D01*
X120405714Y-109347200D02*
X120262857Y-109394819D01*
X120262857Y-109394819D02*
X120167619Y-109394819D01*
X120167619Y-109394819D02*
X120024762Y-109347200D01*
X120024762Y-109347200D02*
X119929524Y-109251961D01*
X119929524Y-109251961D02*
X119881905Y-109156723D01*
X119881905Y-109156723D02*
X119834286Y-108966247D01*
X119834286Y-108966247D02*
X119834286Y-108823390D01*
X119834286Y-108823390D02*
X119881905Y-108632914D01*
X119881905Y-108632914D02*
X119929524Y-108537676D01*
X119929524Y-108537676D02*
X120024762Y-108442438D01*
X120024762Y-108442438D02*
X120167619Y-108394819D01*
X120167619Y-108394819D02*
X120262857Y-108394819D01*
X120262857Y-108394819D02*
X120405714Y-108442438D01*
X120405714Y-108442438D02*
X120453333Y-108490057D01*
X120786667Y-108394819D02*
X121453333Y-108394819D01*
X121453333Y-108394819D02*
X121024762Y-109394819D01*
X129088095Y-101804819D02*
X129088095Y-102614342D01*
X129088095Y-102614342D02*
X129135714Y-102709580D01*
X129135714Y-102709580D02*
X129183333Y-102757200D01*
X129183333Y-102757200D02*
X129278571Y-102804819D01*
X129278571Y-102804819D02*
X129469047Y-102804819D01*
X129469047Y-102804819D02*
X129564285Y-102757200D01*
X129564285Y-102757200D02*
X129611904Y-102709580D01*
X129611904Y-102709580D02*
X129659523Y-102614342D01*
X129659523Y-102614342D02*
X129659523Y-101804819D01*
X130088095Y-101900057D02*
X130135714Y-101852438D01*
X130135714Y-101852438D02*
X130230952Y-101804819D01*
X130230952Y-101804819D02*
X130469047Y-101804819D01*
X130469047Y-101804819D02*
X130564285Y-101852438D01*
X130564285Y-101852438D02*
X130611904Y-101900057D01*
X130611904Y-101900057D02*
X130659523Y-101995295D01*
X130659523Y-101995295D02*
X130659523Y-102090533D01*
X130659523Y-102090533D02*
X130611904Y-102233390D01*
X130611904Y-102233390D02*
X130040476Y-102804819D01*
X130040476Y-102804819D02*
X130659523Y-102804819D01*
X124758333Y-96409580D02*
X124710714Y-96457200D01*
X124710714Y-96457200D02*
X124567857Y-96504819D01*
X124567857Y-96504819D02*
X124472619Y-96504819D01*
X124472619Y-96504819D02*
X124329762Y-96457200D01*
X124329762Y-96457200D02*
X124234524Y-96361961D01*
X124234524Y-96361961D02*
X124186905Y-96266723D01*
X124186905Y-96266723D02*
X124139286Y-96076247D01*
X124139286Y-96076247D02*
X124139286Y-95933390D01*
X124139286Y-95933390D02*
X124186905Y-95742914D01*
X124186905Y-95742914D02*
X124234524Y-95647676D01*
X124234524Y-95647676D02*
X124329762Y-95552438D01*
X124329762Y-95552438D02*
X124472619Y-95504819D01*
X124472619Y-95504819D02*
X124567857Y-95504819D01*
X124567857Y-95504819D02*
X124710714Y-95552438D01*
X124710714Y-95552438D02*
X124758333Y-95600057D01*
X125710714Y-96504819D02*
X125139286Y-96504819D01*
X125425000Y-96504819D02*
X125425000Y-95504819D01*
X125425000Y-95504819D02*
X125329762Y-95647676D01*
X125329762Y-95647676D02*
X125234524Y-95742914D01*
X125234524Y-95742914D02*
X125139286Y-95790533D01*
X120503333Y-110709580D02*
X120455714Y-110757200D01*
X120455714Y-110757200D02*
X120312857Y-110804819D01*
X120312857Y-110804819D02*
X120217619Y-110804819D01*
X120217619Y-110804819D02*
X120074762Y-110757200D01*
X120074762Y-110757200D02*
X119979524Y-110661961D01*
X119979524Y-110661961D02*
X119931905Y-110566723D01*
X119931905Y-110566723D02*
X119884286Y-110376247D01*
X119884286Y-110376247D02*
X119884286Y-110233390D01*
X119884286Y-110233390D02*
X119931905Y-110042914D01*
X119931905Y-110042914D02*
X119979524Y-109947676D01*
X119979524Y-109947676D02*
X120074762Y-109852438D01*
X120074762Y-109852438D02*
X120217619Y-109804819D01*
X120217619Y-109804819D02*
X120312857Y-109804819D01*
X120312857Y-109804819D02*
X120455714Y-109852438D01*
X120455714Y-109852438D02*
X120503333Y-109900057D01*
X121074762Y-110233390D02*
X120979524Y-110185771D01*
X120979524Y-110185771D02*
X120931905Y-110138152D01*
X120931905Y-110138152D02*
X120884286Y-110042914D01*
X120884286Y-110042914D02*
X120884286Y-109995295D01*
X120884286Y-109995295D02*
X120931905Y-109900057D01*
X120931905Y-109900057D02*
X120979524Y-109852438D01*
X120979524Y-109852438D02*
X121074762Y-109804819D01*
X121074762Y-109804819D02*
X121265238Y-109804819D01*
X121265238Y-109804819D02*
X121360476Y-109852438D01*
X121360476Y-109852438D02*
X121408095Y-109900057D01*
X121408095Y-109900057D02*
X121455714Y-109995295D01*
X121455714Y-109995295D02*
X121455714Y-110042914D01*
X121455714Y-110042914D02*
X121408095Y-110138152D01*
X121408095Y-110138152D02*
X121360476Y-110185771D01*
X121360476Y-110185771D02*
X121265238Y-110233390D01*
X121265238Y-110233390D02*
X121074762Y-110233390D01*
X121074762Y-110233390D02*
X120979524Y-110281009D01*
X120979524Y-110281009D02*
X120931905Y-110328628D01*
X120931905Y-110328628D02*
X120884286Y-110423866D01*
X120884286Y-110423866D02*
X120884286Y-110614342D01*
X120884286Y-110614342D02*
X120931905Y-110709580D01*
X120931905Y-110709580D02*
X120979524Y-110757200D01*
X120979524Y-110757200D02*
X121074762Y-110804819D01*
X121074762Y-110804819D02*
X121265238Y-110804819D01*
X121265238Y-110804819D02*
X121360476Y-110757200D01*
X121360476Y-110757200D02*
X121408095Y-110709580D01*
X121408095Y-110709580D02*
X121455714Y-110614342D01*
X121455714Y-110614342D02*
X121455714Y-110423866D01*
X121455714Y-110423866D02*
X121408095Y-110328628D01*
X121408095Y-110328628D02*
X121360476Y-110281009D01*
X121360476Y-110281009D02*
X121265238Y-110233390D01*
X151833333Y-110154819D02*
X151500000Y-109678628D01*
X151261905Y-110154819D02*
X151261905Y-109154819D01*
X151261905Y-109154819D02*
X151642857Y-109154819D01*
X151642857Y-109154819D02*
X151738095Y-109202438D01*
X151738095Y-109202438D02*
X151785714Y-109250057D01*
X151785714Y-109250057D02*
X151833333Y-109345295D01*
X151833333Y-109345295D02*
X151833333Y-109488152D01*
X151833333Y-109488152D02*
X151785714Y-109583390D01*
X151785714Y-109583390D02*
X151738095Y-109631009D01*
X151738095Y-109631009D02*
X151642857Y-109678628D01*
X151642857Y-109678628D02*
X151261905Y-109678628D01*
X152785714Y-110154819D02*
X152214286Y-110154819D01*
X152500000Y-110154819D02*
X152500000Y-109154819D01*
X152500000Y-109154819D02*
X152404762Y-109297676D01*
X152404762Y-109297676D02*
X152309524Y-109392914D01*
X152309524Y-109392914D02*
X152214286Y-109440533D01*
X124733333Y-98759580D02*
X124685714Y-98807200D01*
X124685714Y-98807200D02*
X124542857Y-98854819D01*
X124542857Y-98854819D02*
X124447619Y-98854819D01*
X124447619Y-98854819D02*
X124304762Y-98807200D01*
X124304762Y-98807200D02*
X124209524Y-98711961D01*
X124209524Y-98711961D02*
X124161905Y-98616723D01*
X124161905Y-98616723D02*
X124114286Y-98426247D01*
X124114286Y-98426247D02*
X124114286Y-98283390D01*
X124114286Y-98283390D02*
X124161905Y-98092914D01*
X124161905Y-98092914D02*
X124209524Y-97997676D01*
X124209524Y-97997676D02*
X124304762Y-97902438D01*
X124304762Y-97902438D02*
X124447619Y-97854819D01*
X124447619Y-97854819D02*
X124542857Y-97854819D01*
X124542857Y-97854819D02*
X124685714Y-97902438D01*
X124685714Y-97902438D02*
X124733333Y-97950057D01*
X125638095Y-97854819D02*
X125161905Y-97854819D01*
X125161905Y-97854819D02*
X125114286Y-98331009D01*
X125114286Y-98331009D02*
X125161905Y-98283390D01*
X125161905Y-98283390D02*
X125257143Y-98235771D01*
X125257143Y-98235771D02*
X125495238Y-98235771D01*
X125495238Y-98235771D02*
X125590476Y-98283390D01*
X125590476Y-98283390D02*
X125638095Y-98331009D01*
X125638095Y-98331009D02*
X125685714Y-98426247D01*
X125685714Y-98426247D02*
X125685714Y-98664342D01*
X125685714Y-98664342D02*
X125638095Y-98759580D01*
X125638095Y-98759580D02*
X125590476Y-98807200D01*
X125590476Y-98807200D02*
X125495238Y-98854819D01*
X125495238Y-98854819D02*
X125257143Y-98854819D01*
X125257143Y-98854819D02*
X125161905Y-98807200D01*
X125161905Y-98807200D02*
X125114286Y-98759580D01*
X125183333Y-100559580D02*
X125135714Y-100607200D01*
X125135714Y-100607200D02*
X124992857Y-100654819D01*
X124992857Y-100654819D02*
X124897619Y-100654819D01*
X124897619Y-100654819D02*
X124754762Y-100607200D01*
X124754762Y-100607200D02*
X124659524Y-100511961D01*
X124659524Y-100511961D02*
X124611905Y-100416723D01*
X124611905Y-100416723D02*
X124564286Y-100226247D01*
X124564286Y-100226247D02*
X124564286Y-100083390D01*
X124564286Y-100083390D02*
X124611905Y-99892914D01*
X124611905Y-99892914D02*
X124659524Y-99797676D01*
X124659524Y-99797676D02*
X124754762Y-99702438D01*
X124754762Y-99702438D02*
X124897619Y-99654819D01*
X124897619Y-99654819D02*
X124992857Y-99654819D01*
X124992857Y-99654819D02*
X125135714Y-99702438D01*
X125135714Y-99702438D02*
X125183333Y-99750057D01*
X125564286Y-99750057D02*
X125611905Y-99702438D01*
X125611905Y-99702438D02*
X125707143Y-99654819D01*
X125707143Y-99654819D02*
X125945238Y-99654819D01*
X125945238Y-99654819D02*
X126040476Y-99702438D01*
X126040476Y-99702438D02*
X126088095Y-99750057D01*
X126088095Y-99750057D02*
X126135714Y-99845295D01*
X126135714Y-99845295D02*
X126135714Y-99940533D01*
X126135714Y-99940533D02*
X126088095Y-100083390D01*
X126088095Y-100083390D02*
X125516667Y-100654819D01*
X125516667Y-100654819D02*
X126135714Y-100654819D01*
X135983333Y-107959580D02*
X135935714Y-108007200D01*
X135935714Y-108007200D02*
X135792857Y-108054819D01*
X135792857Y-108054819D02*
X135697619Y-108054819D01*
X135697619Y-108054819D02*
X135554762Y-108007200D01*
X135554762Y-108007200D02*
X135459524Y-107911961D01*
X135459524Y-107911961D02*
X135411905Y-107816723D01*
X135411905Y-107816723D02*
X135364286Y-107626247D01*
X135364286Y-107626247D02*
X135364286Y-107483390D01*
X135364286Y-107483390D02*
X135411905Y-107292914D01*
X135411905Y-107292914D02*
X135459524Y-107197676D01*
X135459524Y-107197676D02*
X135554762Y-107102438D01*
X135554762Y-107102438D02*
X135697619Y-107054819D01*
X135697619Y-107054819D02*
X135792857Y-107054819D01*
X135792857Y-107054819D02*
X135935714Y-107102438D01*
X135935714Y-107102438D02*
X135983333Y-107150057D01*
X136459524Y-108054819D02*
X136650000Y-108054819D01*
X136650000Y-108054819D02*
X136745238Y-108007200D01*
X136745238Y-108007200D02*
X136792857Y-107959580D01*
X136792857Y-107959580D02*
X136888095Y-107816723D01*
X136888095Y-107816723D02*
X136935714Y-107626247D01*
X136935714Y-107626247D02*
X136935714Y-107245295D01*
X136935714Y-107245295D02*
X136888095Y-107150057D01*
X136888095Y-107150057D02*
X136840476Y-107102438D01*
X136840476Y-107102438D02*
X136745238Y-107054819D01*
X136745238Y-107054819D02*
X136554762Y-107054819D01*
X136554762Y-107054819D02*
X136459524Y-107102438D01*
X136459524Y-107102438D02*
X136411905Y-107150057D01*
X136411905Y-107150057D02*
X136364286Y-107245295D01*
X136364286Y-107245295D02*
X136364286Y-107483390D01*
X136364286Y-107483390D02*
X136411905Y-107578628D01*
X136411905Y-107578628D02*
X136459524Y-107626247D01*
X136459524Y-107626247D02*
X136554762Y-107673866D01*
X136554762Y-107673866D02*
X136745238Y-107673866D01*
X136745238Y-107673866D02*
X136840476Y-107626247D01*
X136840476Y-107626247D02*
X136888095Y-107578628D01*
X136888095Y-107578628D02*
X136935714Y-107483390D01*
X130683333Y-114454819D02*
X130350000Y-113978628D01*
X130111905Y-114454819D02*
X130111905Y-113454819D01*
X130111905Y-113454819D02*
X130492857Y-113454819D01*
X130492857Y-113454819D02*
X130588095Y-113502438D01*
X130588095Y-113502438D02*
X130635714Y-113550057D01*
X130635714Y-113550057D02*
X130683333Y-113645295D01*
X130683333Y-113645295D02*
X130683333Y-113788152D01*
X130683333Y-113788152D02*
X130635714Y-113883390D01*
X130635714Y-113883390D02*
X130588095Y-113931009D01*
X130588095Y-113931009D02*
X130492857Y-113978628D01*
X130492857Y-113978628D02*
X130111905Y-113978628D01*
X131588095Y-113454819D02*
X131111905Y-113454819D01*
X131111905Y-113454819D02*
X131064286Y-113931009D01*
X131064286Y-113931009D02*
X131111905Y-113883390D01*
X131111905Y-113883390D02*
X131207143Y-113835771D01*
X131207143Y-113835771D02*
X131445238Y-113835771D01*
X131445238Y-113835771D02*
X131540476Y-113883390D01*
X131540476Y-113883390D02*
X131588095Y-113931009D01*
X131588095Y-113931009D02*
X131635714Y-114026247D01*
X131635714Y-114026247D02*
X131635714Y-114264342D01*
X131635714Y-114264342D02*
X131588095Y-114359580D01*
X131588095Y-114359580D02*
X131540476Y-114407200D01*
X131540476Y-114407200D02*
X131445238Y-114454819D01*
X131445238Y-114454819D02*
X131207143Y-114454819D01*
X131207143Y-114454819D02*
X131111905Y-114407200D01*
X131111905Y-114407200D02*
X131064286Y-114359580D01*
X124303333Y-114454819D02*
X123970000Y-113978628D01*
X123731905Y-114454819D02*
X123731905Y-113454819D01*
X123731905Y-113454819D02*
X124112857Y-113454819D01*
X124112857Y-113454819D02*
X124208095Y-113502438D01*
X124208095Y-113502438D02*
X124255714Y-113550057D01*
X124255714Y-113550057D02*
X124303333Y-113645295D01*
X124303333Y-113645295D02*
X124303333Y-113788152D01*
X124303333Y-113788152D02*
X124255714Y-113883390D01*
X124255714Y-113883390D02*
X124208095Y-113931009D01*
X124208095Y-113931009D02*
X124112857Y-113978628D01*
X124112857Y-113978628D02*
X123731905Y-113978628D01*
X125160476Y-113788152D02*
X125160476Y-114454819D01*
X124922381Y-113407200D02*
X124684286Y-114121485D01*
X124684286Y-114121485D02*
X125303333Y-114121485D01*
X120033333Y-98704819D02*
X119700000Y-98228628D01*
X119461905Y-98704819D02*
X119461905Y-97704819D01*
X119461905Y-97704819D02*
X119842857Y-97704819D01*
X119842857Y-97704819D02*
X119938095Y-97752438D01*
X119938095Y-97752438D02*
X119985714Y-97800057D01*
X119985714Y-97800057D02*
X120033333Y-97895295D01*
X120033333Y-97895295D02*
X120033333Y-98038152D01*
X120033333Y-98038152D02*
X119985714Y-98133390D01*
X119985714Y-98133390D02*
X119938095Y-98181009D01*
X119938095Y-98181009D02*
X119842857Y-98228628D01*
X119842857Y-98228628D02*
X119461905Y-98228628D01*
X120414286Y-97800057D02*
X120461905Y-97752438D01*
X120461905Y-97752438D02*
X120557143Y-97704819D01*
X120557143Y-97704819D02*
X120795238Y-97704819D01*
X120795238Y-97704819D02*
X120890476Y-97752438D01*
X120890476Y-97752438D02*
X120938095Y-97800057D01*
X120938095Y-97800057D02*
X120985714Y-97895295D01*
X120985714Y-97895295D02*
X120985714Y-97990533D01*
X120985714Y-97990533D02*
X120938095Y-98133390D01*
X120938095Y-98133390D02*
X120366667Y-98704819D01*
X120366667Y-98704819D02*
X120985714Y-98704819D01*
X146711905Y-115154819D02*
X146711905Y-114154819D01*
X146711905Y-114154819D02*
X146950000Y-114154819D01*
X146950000Y-114154819D02*
X147092857Y-114202438D01*
X147092857Y-114202438D02*
X147188095Y-114297676D01*
X147188095Y-114297676D02*
X147235714Y-114392914D01*
X147235714Y-114392914D02*
X147283333Y-114583390D01*
X147283333Y-114583390D02*
X147283333Y-114726247D01*
X147283333Y-114726247D02*
X147235714Y-114916723D01*
X147235714Y-114916723D02*
X147188095Y-115011961D01*
X147188095Y-115011961D02*
X147092857Y-115107200D01*
X147092857Y-115107200D02*
X146950000Y-115154819D01*
X146950000Y-115154819D02*
X146711905Y-115154819D01*
X148235714Y-115154819D02*
X147664286Y-115154819D01*
X147950000Y-115154819D02*
X147950000Y-114154819D01*
X147950000Y-114154819D02*
X147854762Y-114297676D01*
X147854762Y-114297676D02*
X147759524Y-114392914D01*
X147759524Y-114392914D02*
X147664286Y-114440533D01*
X123816666Y-112081009D02*
X123483333Y-112081009D01*
X123483333Y-112604819D02*
X123483333Y-111604819D01*
X123483333Y-111604819D02*
X123959523Y-111604819D01*
X124673809Y-112081009D02*
X124816666Y-112128628D01*
X124816666Y-112128628D02*
X124864285Y-112176247D01*
X124864285Y-112176247D02*
X124911904Y-112271485D01*
X124911904Y-112271485D02*
X124911904Y-112414342D01*
X124911904Y-112414342D02*
X124864285Y-112509580D01*
X124864285Y-112509580D02*
X124816666Y-112557200D01*
X124816666Y-112557200D02*
X124721428Y-112604819D01*
X124721428Y-112604819D02*
X124340476Y-112604819D01*
X124340476Y-112604819D02*
X124340476Y-111604819D01*
X124340476Y-111604819D02*
X124673809Y-111604819D01*
X124673809Y-111604819D02*
X124769047Y-111652438D01*
X124769047Y-111652438D02*
X124816666Y-111700057D01*
X124816666Y-111700057D02*
X124864285Y-111795295D01*
X124864285Y-111795295D02*
X124864285Y-111890533D01*
X124864285Y-111890533D02*
X124816666Y-111985771D01*
X124816666Y-111985771D02*
X124769047Y-112033390D01*
X124769047Y-112033390D02*
X124673809Y-112081009D01*
X124673809Y-112081009D02*
X124340476Y-112081009D01*
X125864285Y-112604819D02*
X125292857Y-112604819D01*
X125578571Y-112604819D02*
X125578571Y-111604819D01*
X125578571Y-111604819D02*
X125483333Y-111747676D01*
X125483333Y-111747676D02*
X125388095Y-111842914D01*
X125388095Y-111842914D02*
X125292857Y-111890533D01*
X135933333Y-101009580D02*
X135885714Y-101057200D01*
X135885714Y-101057200D02*
X135742857Y-101104819D01*
X135742857Y-101104819D02*
X135647619Y-101104819D01*
X135647619Y-101104819D02*
X135504762Y-101057200D01*
X135504762Y-101057200D02*
X135409524Y-100961961D01*
X135409524Y-100961961D02*
X135361905Y-100866723D01*
X135361905Y-100866723D02*
X135314286Y-100676247D01*
X135314286Y-100676247D02*
X135314286Y-100533390D01*
X135314286Y-100533390D02*
X135361905Y-100342914D01*
X135361905Y-100342914D02*
X135409524Y-100247676D01*
X135409524Y-100247676D02*
X135504762Y-100152438D01*
X135504762Y-100152438D02*
X135647619Y-100104819D01*
X135647619Y-100104819D02*
X135742857Y-100104819D01*
X135742857Y-100104819D02*
X135885714Y-100152438D01*
X135885714Y-100152438D02*
X135933333Y-100200057D01*
X136790476Y-100438152D02*
X136790476Y-101104819D01*
X136552381Y-100057200D02*
X136314286Y-100771485D01*
X136314286Y-100771485D02*
X136933333Y-100771485D01*
X140933333Y-103204819D02*
X140600000Y-102728628D01*
X140361905Y-103204819D02*
X140361905Y-102204819D01*
X140361905Y-102204819D02*
X140742857Y-102204819D01*
X140742857Y-102204819D02*
X140838095Y-102252438D01*
X140838095Y-102252438D02*
X140885714Y-102300057D01*
X140885714Y-102300057D02*
X140933333Y-102395295D01*
X140933333Y-102395295D02*
X140933333Y-102538152D01*
X140933333Y-102538152D02*
X140885714Y-102633390D01*
X140885714Y-102633390D02*
X140838095Y-102681009D01*
X140838095Y-102681009D02*
X140742857Y-102728628D01*
X140742857Y-102728628D02*
X140361905Y-102728628D01*
X141266667Y-102204819D02*
X141885714Y-102204819D01*
X141885714Y-102204819D02*
X141552381Y-102585771D01*
X141552381Y-102585771D02*
X141695238Y-102585771D01*
X141695238Y-102585771D02*
X141790476Y-102633390D01*
X141790476Y-102633390D02*
X141838095Y-102681009D01*
X141838095Y-102681009D02*
X141885714Y-102776247D01*
X141885714Y-102776247D02*
X141885714Y-103014342D01*
X141885714Y-103014342D02*
X141838095Y-103109580D01*
X141838095Y-103109580D02*
X141790476Y-103157200D01*
X141790476Y-103157200D02*
X141695238Y-103204819D01*
X141695238Y-103204819D02*
X141409524Y-103204819D01*
X141409524Y-103204819D02*
X141314286Y-103157200D01*
X141314286Y-103157200D02*
X141266667Y-103109580D01*
X123533333Y-107909580D02*
X123485714Y-107957200D01*
X123485714Y-107957200D02*
X123342857Y-108004819D01*
X123342857Y-108004819D02*
X123247619Y-108004819D01*
X123247619Y-108004819D02*
X123104762Y-107957200D01*
X123104762Y-107957200D02*
X123009524Y-107861961D01*
X123009524Y-107861961D02*
X122961905Y-107766723D01*
X122961905Y-107766723D02*
X122914286Y-107576247D01*
X122914286Y-107576247D02*
X122914286Y-107433390D01*
X122914286Y-107433390D02*
X122961905Y-107242914D01*
X122961905Y-107242914D02*
X123009524Y-107147676D01*
X123009524Y-107147676D02*
X123104762Y-107052438D01*
X123104762Y-107052438D02*
X123247619Y-107004819D01*
X123247619Y-107004819D02*
X123342857Y-107004819D01*
X123342857Y-107004819D02*
X123485714Y-107052438D01*
X123485714Y-107052438D02*
X123533333Y-107100057D01*
X124390476Y-107004819D02*
X124200000Y-107004819D01*
X124200000Y-107004819D02*
X124104762Y-107052438D01*
X124104762Y-107052438D02*
X124057143Y-107100057D01*
X124057143Y-107100057D02*
X123961905Y-107242914D01*
X123961905Y-107242914D02*
X123914286Y-107433390D01*
X123914286Y-107433390D02*
X123914286Y-107814342D01*
X123914286Y-107814342D02*
X123961905Y-107909580D01*
X123961905Y-107909580D02*
X124009524Y-107957200D01*
X124009524Y-107957200D02*
X124104762Y-108004819D01*
X124104762Y-108004819D02*
X124295238Y-108004819D01*
X124295238Y-108004819D02*
X124390476Y-107957200D01*
X124390476Y-107957200D02*
X124438095Y-107909580D01*
X124438095Y-107909580D02*
X124485714Y-107814342D01*
X124485714Y-107814342D02*
X124485714Y-107576247D01*
X124485714Y-107576247D02*
X124438095Y-107481009D01*
X124438095Y-107481009D02*
X124390476Y-107433390D01*
X124390476Y-107433390D02*
X124295238Y-107385771D01*
X124295238Y-107385771D02*
X124104762Y-107385771D01*
X124104762Y-107385771D02*
X124009524Y-107433390D01*
X124009524Y-107433390D02*
X123961905Y-107481009D01*
X123961905Y-107481009D02*
X123914286Y-107576247D01*
X121357142Y-100359580D02*
X121309523Y-100407200D01*
X121309523Y-100407200D02*
X121166666Y-100454819D01*
X121166666Y-100454819D02*
X121071428Y-100454819D01*
X121071428Y-100454819D02*
X120928571Y-100407200D01*
X120928571Y-100407200D02*
X120833333Y-100311961D01*
X120833333Y-100311961D02*
X120785714Y-100216723D01*
X120785714Y-100216723D02*
X120738095Y-100026247D01*
X120738095Y-100026247D02*
X120738095Y-99883390D01*
X120738095Y-99883390D02*
X120785714Y-99692914D01*
X120785714Y-99692914D02*
X120833333Y-99597676D01*
X120833333Y-99597676D02*
X120928571Y-99502438D01*
X120928571Y-99502438D02*
X121071428Y-99454819D01*
X121071428Y-99454819D02*
X121166666Y-99454819D01*
X121166666Y-99454819D02*
X121309523Y-99502438D01*
X121309523Y-99502438D02*
X121357142Y-99550057D01*
X122309523Y-100454819D02*
X121738095Y-100454819D01*
X122023809Y-100454819D02*
X122023809Y-99454819D01*
X122023809Y-99454819D02*
X121928571Y-99597676D01*
X121928571Y-99597676D02*
X121833333Y-99692914D01*
X121833333Y-99692914D02*
X121738095Y-99740533D01*
X122690476Y-99550057D02*
X122738095Y-99502438D01*
X122738095Y-99502438D02*
X122833333Y-99454819D01*
X122833333Y-99454819D02*
X123071428Y-99454819D01*
X123071428Y-99454819D02*
X123166666Y-99502438D01*
X123166666Y-99502438D02*
X123214285Y-99550057D01*
X123214285Y-99550057D02*
X123261904Y-99645295D01*
X123261904Y-99645295D02*
X123261904Y-99740533D01*
X123261904Y-99740533D02*
X123214285Y-99883390D01*
X123214285Y-99883390D02*
X122642857Y-100454819D01*
X122642857Y-100454819D02*
X123261904Y-100454819D01*
X126607142Y-112359580D02*
X126559523Y-112407200D01*
X126559523Y-112407200D02*
X126416666Y-112454819D01*
X126416666Y-112454819D02*
X126321428Y-112454819D01*
X126321428Y-112454819D02*
X126178571Y-112407200D01*
X126178571Y-112407200D02*
X126083333Y-112311961D01*
X126083333Y-112311961D02*
X126035714Y-112216723D01*
X126035714Y-112216723D02*
X125988095Y-112026247D01*
X125988095Y-112026247D02*
X125988095Y-111883390D01*
X125988095Y-111883390D02*
X126035714Y-111692914D01*
X126035714Y-111692914D02*
X126083333Y-111597676D01*
X126083333Y-111597676D02*
X126178571Y-111502438D01*
X126178571Y-111502438D02*
X126321428Y-111454819D01*
X126321428Y-111454819D02*
X126416666Y-111454819D01*
X126416666Y-111454819D02*
X126559523Y-111502438D01*
X126559523Y-111502438D02*
X126607142Y-111550057D01*
X127559523Y-112454819D02*
X126988095Y-112454819D01*
X127273809Y-112454819D02*
X127273809Y-111454819D01*
X127273809Y-111454819D02*
X127178571Y-111597676D01*
X127178571Y-111597676D02*
X127083333Y-111692914D01*
X127083333Y-111692914D02*
X126988095Y-111740533D01*
X128511904Y-112454819D02*
X127940476Y-112454819D01*
X128226190Y-112454819D02*
X128226190Y-111454819D01*
X128226190Y-111454819D02*
X128130952Y-111597676D01*
X128130952Y-111597676D02*
X128035714Y-111692914D01*
X128035714Y-111692914D02*
X127940476Y-111740533D01*
X143407142Y-111009580D02*
X143359523Y-111057200D01*
X143359523Y-111057200D02*
X143216666Y-111104819D01*
X143216666Y-111104819D02*
X143121428Y-111104819D01*
X143121428Y-111104819D02*
X142978571Y-111057200D01*
X142978571Y-111057200D02*
X142883333Y-110961961D01*
X142883333Y-110961961D02*
X142835714Y-110866723D01*
X142835714Y-110866723D02*
X142788095Y-110676247D01*
X142788095Y-110676247D02*
X142788095Y-110533390D01*
X142788095Y-110533390D02*
X142835714Y-110342914D01*
X142835714Y-110342914D02*
X142883333Y-110247676D01*
X142883333Y-110247676D02*
X142978571Y-110152438D01*
X142978571Y-110152438D02*
X143121428Y-110104819D01*
X143121428Y-110104819D02*
X143216666Y-110104819D01*
X143216666Y-110104819D02*
X143359523Y-110152438D01*
X143359523Y-110152438D02*
X143407142Y-110200057D01*
X144359523Y-111104819D02*
X143788095Y-111104819D01*
X144073809Y-111104819D02*
X144073809Y-110104819D01*
X144073809Y-110104819D02*
X143978571Y-110247676D01*
X143978571Y-110247676D02*
X143883333Y-110342914D01*
X143883333Y-110342914D02*
X143788095Y-110390533D01*
X144978571Y-110104819D02*
X145073809Y-110104819D01*
X145073809Y-110104819D02*
X145169047Y-110152438D01*
X145169047Y-110152438D02*
X145216666Y-110200057D01*
X145216666Y-110200057D02*
X145264285Y-110295295D01*
X145264285Y-110295295D02*
X145311904Y-110485771D01*
X145311904Y-110485771D02*
X145311904Y-110723866D01*
X145311904Y-110723866D02*
X145264285Y-110914342D01*
X145264285Y-110914342D02*
X145216666Y-111009580D01*
X145216666Y-111009580D02*
X145169047Y-111057200D01*
X145169047Y-111057200D02*
X145073809Y-111104819D01*
X145073809Y-111104819D02*
X144978571Y-111104819D01*
X144978571Y-111104819D02*
X144883333Y-111057200D01*
X144883333Y-111057200D02*
X144835714Y-111009580D01*
X144835714Y-111009580D02*
X144788095Y-110914342D01*
X144788095Y-110914342D02*
X144740476Y-110723866D01*
X144740476Y-110723866D02*
X144740476Y-110485771D01*
X144740476Y-110485771D02*
X144788095Y-110295295D01*
X144788095Y-110295295D02*
X144835714Y-110200057D01*
X144835714Y-110200057D02*
X144883333Y-110152438D01*
X144883333Y-110152438D02*
X144978571Y-110104819D01*
X132463333Y-112259580D02*
X132415714Y-112307200D01*
X132415714Y-112307200D02*
X132272857Y-112354819D01*
X132272857Y-112354819D02*
X132177619Y-112354819D01*
X132177619Y-112354819D02*
X132034762Y-112307200D01*
X132034762Y-112307200D02*
X131939524Y-112211961D01*
X131939524Y-112211961D02*
X131891905Y-112116723D01*
X131891905Y-112116723D02*
X131844286Y-111926247D01*
X131844286Y-111926247D02*
X131844286Y-111783390D01*
X131844286Y-111783390D02*
X131891905Y-111592914D01*
X131891905Y-111592914D02*
X131939524Y-111497676D01*
X131939524Y-111497676D02*
X132034762Y-111402438D01*
X132034762Y-111402438D02*
X132177619Y-111354819D01*
X132177619Y-111354819D02*
X132272857Y-111354819D01*
X132272857Y-111354819D02*
X132415714Y-111402438D01*
X132415714Y-111402438D02*
X132463333Y-111450057D01*
X132796667Y-111354819D02*
X133415714Y-111354819D01*
X133415714Y-111354819D02*
X133082381Y-111735771D01*
X133082381Y-111735771D02*
X133225238Y-111735771D01*
X133225238Y-111735771D02*
X133320476Y-111783390D01*
X133320476Y-111783390D02*
X133368095Y-111831009D01*
X133368095Y-111831009D02*
X133415714Y-111926247D01*
X133415714Y-111926247D02*
X133415714Y-112164342D01*
X133415714Y-112164342D02*
X133368095Y-112259580D01*
X133368095Y-112259580D02*
X133320476Y-112307200D01*
X133320476Y-112307200D02*
X133225238Y-112354819D01*
X133225238Y-112354819D02*
X132939524Y-112354819D01*
X132939524Y-112354819D02*
X132844286Y-112307200D01*
X132844286Y-112307200D02*
X132796667Y-112259580D01*
X120857142Y-106759580D02*
X120809523Y-106807200D01*
X120809523Y-106807200D02*
X120666666Y-106854819D01*
X120666666Y-106854819D02*
X120571428Y-106854819D01*
X120571428Y-106854819D02*
X120428571Y-106807200D01*
X120428571Y-106807200D02*
X120333333Y-106711961D01*
X120333333Y-106711961D02*
X120285714Y-106616723D01*
X120285714Y-106616723D02*
X120238095Y-106426247D01*
X120238095Y-106426247D02*
X120238095Y-106283390D01*
X120238095Y-106283390D02*
X120285714Y-106092914D01*
X120285714Y-106092914D02*
X120333333Y-105997676D01*
X120333333Y-105997676D02*
X120428571Y-105902438D01*
X120428571Y-105902438D02*
X120571428Y-105854819D01*
X120571428Y-105854819D02*
X120666666Y-105854819D01*
X120666666Y-105854819D02*
X120809523Y-105902438D01*
X120809523Y-105902438D02*
X120857142Y-105950057D01*
X121809523Y-106854819D02*
X121238095Y-106854819D01*
X121523809Y-106854819D02*
X121523809Y-105854819D01*
X121523809Y-105854819D02*
X121428571Y-105997676D01*
X121428571Y-105997676D02*
X121333333Y-106092914D01*
X121333333Y-106092914D02*
X121238095Y-106140533D01*
X122142857Y-105854819D02*
X122761904Y-105854819D01*
X122761904Y-105854819D02*
X122428571Y-106235771D01*
X122428571Y-106235771D02*
X122571428Y-106235771D01*
X122571428Y-106235771D02*
X122666666Y-106283390D01*
X122666666Y-106283390D02*
X122714285Y-106331009D01*
X122714285Y-106331009D02*
X122761904Y-106426247D01*
X122761904Y-106426247D02*
X122761904Y-106664342D01*
X122761904Y-106664342D02*
X122714285Y-106759580D01*
X122714285Y-106759580D02*
X122666666Y-106807200D01*
X122666666Y-106807200D02*
X122571428Y-106854819D01*
X122571428Y-106854819D02*
X122285714Y-106854819D01*
X122285714Y-106854819D02*
X122190476Y-106807200D01*
X122190476Y-106807200D02*
X122142857Y-106759580D01*
X138138095Y-117654819D02*
X138138095Y-118464342D01*
X138138095Y-118464342D02*
X138185714Y-118559580D01*
X138185714Y-118559580D02*
X138233333Y-118607200D01*
X138233333Y-118607200D02*
X138328571Y-118654819D01*
X138328571Y-118654819D02*
X138519047Y-118654819D01*
X138519047Y-118654819D02*
X138614285Y-118607200D01*
X138614285Y-118607200D02*
X138661904Y-118559580D01*
X138661904Y-118559580D02*
X138709523Y-118464342D01*
X138709523Y-118464342D02*
X138709523Y-117654819D01*
X139709523Y-118654819D02*
X139138095Y-118654819D01*
X139423809Y-118654819D02*
X139423809Y-117654819D01*
X139423809Y-117654819D02*
X139328571Y-117797676D01*
X139328571Y-117797676D02*
X139233333Y-117892914D01*
X139233333Y-117892914D02*
X139138095Y-117940533D01*
D12*
%TO.C,Y1*%
X118200000Y-101530000D02*
X118200000Y-105530000D01*
X121500000Y-101530000D02*
X118200000Y-101530000D01*
%TO.C,C7*%
X122807836Y-108580000D02*
X122592164Y-108580000D01*
X122807836Y-109300000D02*
X122592164Y-109300000D01*
%TO.C,U2*%
X126240000Y-101127500D02*
X126240000Y-101577500D01*
X126240000Y-108347500D02*
X126240000Y-107897500D01*
X126690000Y-101127500D02*
X126240000Y-101127500D01*
X126690000Y-108347500D02*
X126240000Y-108347500D01*
X133010000Y-101127500D02*
X133460000Y-101127500D01*
X133010000Y-108347500D02*
X133460000Y-108347500D01*
X133460000Y-101127500D02*
X133460000Y-101577500D01*
X133460000Y-108347500D02*
X133460000Y-107897500D01*
X125650000Y-101577500D02*
X125310000Y-101107500D01*
X125990000Y-101107500D01*
X125650000Y-101577500D01*
G36*
X125650000Y-101577500D02*
G01*
X125310000Y-101107500D01*
X125990000Y-101107500D01*
X125650000Y-101577500D01*
G37*
%TO.C,C1*%
X127284420Y-96390000D02*
X127565580Y-96390000D01*
X127284420Y-97410000D02*
X127565580Y-97410000D01*
%TO.C,C8*%
X122827836Y-109990000D02*
X122612164Y-109990000D01*
X122827836Y-110710000D02*
X122612164Y-110710000D01*
%TO.C,R1*%
X148043641Y-109320000D02*
X147736359Y-109320000D01*
X148043641Y-110080000D02*
X147736359Y-110080000D01*
%TO.C,C5*%
X127272164Y-98040000D02*
X127487836Y-98040000D01*
X127272164Y-98760000D02*
X127487836Y-98760000D01*
%TO.C,C2*%
X123540000Y-101607836D02*
X123540000Y-101392164D01*
X124260000Y-101607836D02*
X124260000Y-101392164D01*
%TO.C,C9*%
X138638748Y-106715000D02*
X139161252Y-106715000D01*
X138638748Y-108185000D02*
X139161252Y-108185000D01*
%TO.C,SW1*%
X113690000Y-96800000D02*
X113690000Y-102500000D01*
X114700000Y-103100000D02*
X115490000Y-103100000D01*
X115490000Y-96200000D02*
X114700000Y-96200000D01*
X116540000Y-98050000D02*
X116540000Y-99750000D01*
X116540000Y-101050000D02*
X116540000Y-101250000D01*
%TO.C,J2*%
X134850000Y-90420000D02*
X134850000Y-93080000D01*
X142530000Y-90420000D02*
X134850000Y-90420000D01*
X142530000Y-90420000D02*
X142530000Y-93080000D01*
X142530000Y-93080000D02*
X134850000Y-93080000D01*
X143800000Y-90420000D02*
X145130000Y-90420000D01*
X145130000Y-90420000D02*
X145130000Y-91750000D01*
%TO.C,R5*%
X128963641Y-113620000D02*
X128656359Y-113620000D01*
X128963641Y-114380000D02*
X128656359Y-114380000D01*
%TO.C,R4*%
X126356359Y-113620000D02*
X126663641Y-113620000D01*
X126356359Y-114380000D02*
X126663641Y-114380000D01*
%TO.C,R2*%
X118620000Y-100013641D02*
X118620000Y-99706359D01*
X119380000Y-100013641D02*
X119380000Y-99706359D01*
%TO.C,D1*%
X146665000Y-110952500D02*
X146665000Y-113237500D01*
X148135000Y-110952500D02*
X146665000Y-110952500D01*
X148135000Y-113237500D02*
X148135000Y-110952500D01*
%TO.C,FB1*%
X124140000Y-109537221D02*
X124140000Y-109862779D01*
X125160000Y-109537221D02*
X125160000Y-109862779D01*
%TO.C,C4*%
X135390000Y-102122164D02*
X135390000Y-102337836D01*
X136110000Y-102122164D02*
X136110000Y-102337836D01*
%TO.C,R3*%
X138870000Y-102686359D02*
X138870000Y-102993641D01*
X139630000Y-102686359D02*
X139630000Y-102993641D01*
%TO.C,C6*%
X123490000Y-105887836D02*
X123490000Y-105672164D01*
X124210000Y-105887836D02*
X124210000Y-105672164D01*
%TO.C,C12*%
X122040000Y-102637836D02*
X122040000Y-102422164D01*
X122760000Y-102637836D02*
X122760000Y-102422164D01*
%TO.C,C11*%
X127142164Y-110290000D02*
X127357836Y-110290000D01*
X127142164Y-111010000D02*
X127357836Y-111010000D01*
%TO.C,J4*%
X122640000Y-118930000D02*
X122640000Y-117600000D01*
X123970000Y-118930000D02*
X122640000Y-118930000D01*
X125240000Y-116270000D02*
X132920000Y-116270000D01*
X125240000Y-118930000D02*
X125240000Y-116270000D01*
X125240000Y-118930000D02*
X132920000Y-118930000D01*
X132920000Y-118930000D02*
X132920000Y-116270000D01*
%TO.C,C10*%
X143365000Y-113461252D02*
X143365000Y-112938748D01*
X144835000Y-113461252D02*
X144835000Y-112938748D01*
D10*
%TO.C,J1*%
X146675000Y-104425000D02*
X146675000Y-105150000D01*
X146675000Y-105150000D02*
X147100000Y-105150000D01*
X147100000Y-101550000D02*
X147100000Y-100550000D01*
X147100000Y-105150000D02*
X147100000Y-106150000D01*
X148850000Y-107500000D02*
X150250000Y-107500000D01*
X150250000Y-99200000D02*
X148850000Y-99200000D01*
X152650000Y-107500000D02*
X152800000Y-107500000D01*
X152800000Y-99200000D02*
X152650000Y-99200000D01*
X152800000Y-99500000D02*
X152800000Y-99200000D01*
X152800000Y-107200000D02*
X153250000Y-107200000D01*
X152800000Y-107500000D02*
X152800000Y-107200000D01*
X153250000Y-99500000D02*
X152800000Y-99500000D01*
D12*
%TO.C,C3*%
X132737836Y-110290000D02*
X132522164Y-110290000D01*
X132737836Y-111010000D02*
X132522164Y-111010000D01*
%TO.C,C13*%
X122040000Y-104667836D02*
X122040000Y-104452164D01*
X122760000Y-104667836D02*
X122760000Y-104452164D01*
%TO.C,U1*%
X135540000Y-111250000D02*
X135540000Y-115010000D01*
X135540000Y-115010000D02*
X136800000Y-115010000D01*
X142360000Y-111250000D02*
X142360000Y-115010000D01*
X142360000Y-115010000D02*
X141100000Y-115010000D01*
X142590000Y-110210000D02*
X142260000Y-109970000D01*
X142590000Y-109730000D01*
X142590000Y-110210000D01*
G36*
X142590000Y-110210000D02*
G01*
X142260000Y-109970000D01*
X142590000Y-109730000D01*
X142590000Y-110210000D01*
G37*
%TO.C,J3*%
X120380000Y-90420000D02*
X120380000Y-93080000D01*
X128060000Y-90420000D02*
X120380000Y-90420000D01*
X128060000Y-90420000D02*
X128060000Y-93080000D01*
X128060000Y-93080000D02*
X120380000Y-93080000D01*
X129330000Y-90420000D02*
X130660000Y-90420000D01*
X130660000Y-90420000D02*
X130660000Y-91750000D01*
%TD*%
M02*
